<svg class='letter-mask' width="88.72" height="180" version="1.1" viewBox="0 0 23.474 47.625" xmlns="http://www.w3.org/2000/svg">
  <g transform="translate(1.524)">
    <path class='letter-mask__path' transform="matrix(.26458 0 0 .26458 -1.524 0)" d="m0 16.184v147.63h23.51v-16.467c-2.2511-0.55516-4.398-1.3299-6.4297-2.3457-4.3733-2.3467-7.8404-5.4928-10.4-9.4395-2.4533-4.0533-3.6797-8.5863-3.6797-13.6 0-5.44 1.4938-10.187 4.4805-14.24 3.0933-4.16 7.3588-7.3596 12.799-9.5996 5.44-2.24 11.681-3.3594 18.721-3.3594 3.52 0 7.094 0.2655 10.721 0.79883s6.7728 1.3872 9.4395 2.5605v-4.4805c0-5.3333-1.6008-9.4403-4.8008-12.32-3.0933-2.88-7.7333-4.3203-13.92-4.3203-4.5867 0-8.9591 0.80039-13.119 2.4004-4.16 1.6-8.5344 3.9477-13.121 7.041l-6.8789-14.08c5.5467-3.6267 11.199-6.3468 16.959-8.1602 4.0575-1.2541 8.246-2.0644 12.559-2.4512v-45.57h-36.838zm58.838 0v47.625c4.5362 1.4929 8.4327 3.7022 11.682 6.6367 6.72 5.9733 10.08 14.506 10.08 25.6v26.721c0 2.24 0.37443 3.8388 1.1211 4.7988 0.85333 0.96 2.1867 1.5464 4 1.7598v17.441c-1.2093 0.20156-2.2438 0.34468-3.3262 0.50391v16.547h6.3262v-147.63h-29.883zm-16.479 90.9c-5.5467 0-10.133 1.2283-13.76 3.6816-3.52 2.3467-5.2793 5.4928-5.2793 9.4395 0 2.1333 0.58643 4.1601 1.7598 6.0801 1.1733 1.92 2.8791 3.4653 5.1191 4.6387 2.24 1.1733 4.9067 1.7617 8 1.7617 3.2 0 6.3481-0.58839 9.4414-1.7617 3.0933-1.28 5.5995-2.8253 7.5195-4.6387 1.1733-1.28 2.1322-2.5598 2.8789-3.8398 0.74667-1.28 1.1211-2.4529 1.1211-3.5195v-8.4805c-2.56-1.0667-5.3336-1.8671-8.3203-2.4004-2.9867-0.64-5.8138-0.96094-8.4805-0.96094zm20 26.561c-3.6267 4.6933-8.1596 8.3209-13.6 10.881-1.5896 0.74807-3.189 1.3729-4.7969 1.9023v17.389h22.936v-18.768c-0.018683-0.01576-0.040051-0.02903-0.058594-0.04492-2.1333-1.92-3.4667-4.2657-4-7.0391l-0.48047-4.3203z"/>
  </g>
</svg>
