<svg class='letter-mask' width="88.4" height="180" version="1.1" viewBox="0 0 23.389 47.625" xmlns="http://www.w3.org/2000/svg">
  <g transform="translate(1.524)">
    <path class='letter-mask__path' transform="matrix(.26458 0 0 .26458 -1.524 0)" d="m0 16.184v147.63h34v-17.113c-1.7528-0.46982-3.4516-1.0286-5.0801-1.6992-5.44-2.3467-10.08-5.5463-13.92-9.5996-3.84-4.16-6.8276-8.8534-8.9609-14.08-2.0267-5.2267-3.0391-10.719-3.0391-16.479 0-7.8933 1.7593-15.095 5.2793-21.602 3.6267-6.6133 8.748-11.893 15.361-15.84 3.1704-1.892 6.6251-3.3256 10.359-4.3105v-46.91h-34zm57.381 0v46.244c4.842 0.94584 9.2235 2.6018 13.139 4.9766 6.5067 3.9467 11.361 9.1195 14.561 15.52l-20.961 6.4004c-1.8133-3.0933-4.2126-5.4391-7.1992-7.0391-2.9867-1.7067-6.2933-2.5605-9.9199-2.5605-4.0533 0-7.7859 1.0659-11.199 3.1992-3.3067 2.0267-5.9198 4.9608-7.8398 8.8008-1.92 3.7333-2.8809 8.1078-2.8809 13.121 0 4.9067 0.96086 9.2792 2.8809 13.119 2.0267 3.7333 4.6933 6.719 8 8.959 3.3067 2.1333 6.9857 3.2012 11.039 3.2012 2.56 0 4.9592-0.42596 7.1992-1.2793 2.3467-0.85333 4.4269-2.0282 6.2402-3.5215s3.1467-3.1991 4-5.1191l20.961 6.4004c-1.92 4.16-4.7471 7.8926-8.4805 11.199-3.6267 3.3067-7.9476 5.9198-12.961 7.8398-2.0759 0.7672-4.2731 1.3621-6.5781 1.8047v16.367h31.02v-147.63h-31.02z" stroke-width="5.6826"/>
  </g>
</svg>
