<svg class='letter-mask' width="103.28" height="180" version="1.1" viewBox="0 0 27.326 47.625" xmlns="http://www.w3.org/2000/svg">
  <g transform="translate(1.524)">
    <path class='letter-mask__path' transform="matrix(.26458 0 0 .26458 -1.524 0)" d="m0 16.184v147.63h19v-17.051h-16v-113.6h32.828v-16.98h-35.828zm58.199 0v18.227c6.4309 1.2304 12.142 3.3715 17.121 6.4355 8.32 5.0133 14.559 11.839 18.719 20.479 4.16 8.5333 6.2402 18.027 6.2402 28.48 0 11.52-2.2922 21.547-6.8789 30.08-4.5867 8.5333-11.093 15.147-19.52 19.84-8.32 4.6933-18.188 7.041-29.602 7.041h-6.4453v17.051h65.445v-147.63h-45.08zm-33.119 36.342v74.879h19.199c7.2533 0 13.387-1.5988 18.4-4.7988 5.0133-3.3067 8.7994-7.7881 11.359-13.441 2.6667-5.76 4-12.213 4-19.359 1e-6 -7.36-1.3333-13.813-4-19.359-2.6667-5.6533-6.5062-10.028-11.52-13.121-5.0133-3.2-11.094-4.7988-18.24-4.7988h-19.199z" stroke-width="6.1423"/>
  </g>
</svg>
