<svg class='letter-border' width="103.28" height="180" version="1.1" viewBox="0 0 27.326 47.625" xmlns="http://www.w3.org/2000/svg">
  <defs>
    <clipPath id="d-uppercase-border">
      <path d="m0 0v16.184h35.828v16.98h-32.828v113.6h16v17.051h-19v16.184h103.28v-16.184h-65.445v-17.051h6.4453c11.413 0 21.282-2.3477 29.602-7.041 8.4267-4.6933 14.933-11.307 19.52-19.84 4.5867-8.5333 6.8789-18.56 6.8789-30.08 0-10.453-2.0802-19.947-6.2402-28.48-4.16-8.64-10.399-15.465-18.719-20.479-4.9792-3.0641-10.69-5.2052-17.121-6.4355v-18.227h45.08v-16.184zm25.08 52.525h19.199c7.1467 0 13.227 1.5988 18.24 4.7988 5.0133 3.0933 8.8529 7.4678 11.52 13.121 2.6667 5.5467 4 11.999 4 19.359 1e-6 7.1467-1.3333 13.599-4 19.359-2.56 5.6533-6.346 10.135-11.359 13.441-5.0133 3.2-11.147 4.7988-18.4 4.7988h-19.199z" fill="#fff"/>
    </clipPath>
  </defs>
  <g transform="translate(1.524)">
    <path class='letter-border__path' transform="matrix(.26458 0 0 .26458 -1.524 0)" d="m0 16.184h35.828v16.98h-32.828v113.6h16v17.051h-19m0 16.184h103.28m0-16.184h-65.445v-17.051h6.4453c11.413 0 21.282-2.3477 29.602-7.041 8.4267-4.6933 14.933-11.307 19.52-19.84 4.5867-8.5333 6.8789-18.56 6.8789-30.08 0-10.453-2.0802-19.947-6.2402-28.48-4.16-8.64-10.399-15.465-18.719-20.479-4.9792-3.0641-10.69-5.2052-17.121-6.4355v-18.227h45.08m0-16.184h-103.28m25.08 52.525h19.199c7.1467 0 13.227 1.5988 18.24 4.7988 5.0133 3.0933 8.8529 7.4678 11.52 13.121 2.6667 5.5467 4 11.999 4 19.359 1e-6 7.1467-1.3333 13.599-4 19.359-2.56 5.6533-6.346 10.135-11.359 13.441-5.0133 3.2-11.147 4.7988-18.4 4.7988h-19.199z" clip-path="url(#d-uppercase-border)" fill="none" stroke="#000" stroke-width="6"/>
  </g>
</svg>
