<svg class='letter-mask' width="93.04" height="180" version="1.1" viewBox="0 0 24.617 47.625" xmlns="http://www.w3.org/2000/svg">
  <path class='letter-mask__path' transform="scale(.26458)" d="m0 16.184v147.63h5.5l10.461-10.172c3.2 3.9467 7.2 7.0393 12 9.2793 0.70651 0.32253 1.4192 0.61648 2.1367 0.89258h25.645c0.071591-0.03197 0.14552-0.05922 0.2168-0.0918 3.84-1.6 6.8811-4.1597 9.1211-7.6797 2.3467-3.4133 3.5195-7.8393 3.5195-13.279v-10.561c-2.7733 4.8-6.7198 8.5326-11.84 11.199-5.0133 2.56-10.347 3.8398-16 3.8398-5.5467 0-10.666-1.0659-15.359-3.1992-4.5867-2.24-8.5867-5.3326-12-9.2793-3.3067-3.9467-5.8664-8.4816-7.6797-13.602-1.8133-5.12-2.7207-10.558-2.7207-16.318 0-6.08 0.96086-11.734 2.8809-16.961 1.92-5.2267 4.5867-9.8131 8-13.76 2.6953-3.1036 5.7359-5.6392 9.1191-7.6172v-50.324h-23zm38.199 0v45.482c1.2568-0.1152 2.5336-0.18164 3.8398-0.18164 6.5067 0 12.214 1.4938 17.121 4.4805 4.9067 2.88 8.9602 6.773 12.16 11.68v-14.719h1.6797v-46.742h-34.801zm50 0v46.742h1.8398v79.84c0 8.2136-1.9794 15.228-5.9297 21.051h8.9297v-147.63h-4.8398zm-41.52 63.541c-3.3067 0-6.2923 0.69341-8.959 2.0801-2.6667 1.3867-4.9609 3.3599-6.8809 5.9199-1.92 2.4533-3.4138 5.227-4.4805 8.3203-0.96 2.9867-1.4395 6.1328-1.4395 9.4395 0 3.4133 0.58643 6.6129 1.7598 9.5996 1.1733 2.9867 2.7741 5.5998 4.8008 7.8398 2.1333 2.24 4.586 4.0012 7.3594 5.2812 2.88 1.28 5.9211 1.9199 9.1211 1.9199 2.3467 0 4.5854-0.37443 6.7188-1.1211 2.1333-0.74667 4.1066-1.7591 5.9199-3.0391s3.4141-2.7738 4.8008-4.4805c1.3867-1.8134 2.4526-3.6261 3.1992-5.4395v-20c-1.28-3.3067-3.0928-6.1873-5.4395-8.6406-2.24-2.4533-4.7997-4.3196-7.6797-5.5996-2.7733-1.3867-5.7075-2.0801-8.8008-2.0801z" stroke-width="5.8298"/>
</svg>
