<svg class='letter-border' width="83.92" height="180" version="1.1" viewBox="0 0 22.204 47.625" xmlns="http://www.w3.org/2000/svg">
  <defs>
    <clipPath id="n-border">
      <path d="m0 0v16.184h5v46.742h-2v83.84h4.5v17.051h-7.5v16.184h83.92v-16.184h-7.9199v-17.051h4.9199v-52.32c0-4.0533-0.37248-8.0533-1.1191-12-0.64-3.9467-1.8683-7.4672-3.6816-10.561-1.7067-3.2-4.2664-5.7062-7.6797-7.5195-3.3067-1.92-7.5722-2.8809-12.799-2.8809-4.8 0-9.3864 0.69341-13.76 2.0801-4.2667 1.28-8.0547 3.1998-11.361 5.7598-3.3067 2.4533-6.0268 5.4944-8.1602 9.1211v-15.52h-2.1602v-46.742h63.721v-16.184zm46.199 80.365c4.16 0 7.4131 1.5453 9.7598 4.6387s3.5215 8.0007 3.5215 14.721v47.041h4.5195v17.051h-44.5v-17.051h4.9395v-48.961c1.0667-3.4133 2.7744-6.399 5.1211-8.959 2.3467-2.6667 4.9598-4.7469 7.8398-6.2402 2.9867-1.4933 5.9188-2.2402 8.7988-2.2402z" fill="#fff"/>
    </clipPath>
  </defs>
  <path class='letter-border__path' transform="scale(.26458)" d="m0 180h83.92m0-16.184h-7.9199v-17.051h4.9199v-52.32c0-4.0533-0.37248-8.0533-1.1191-12-0.64-3.9467-1.8683-7.4672-3.6816-10.561-1.7067-3.2-4.2664-5.7062-7.6797-7.5195-3.3067-1.92-7.5722-2.8809-12.799-2.8809-4.8 0-9.3864 0.69341-13.76 2.0801-4.2667 1.28-8.0547 3.1998-11.361 5.7598-3.3067 2.4533-6.0268 5.4944-8.1602 9.1211v-15.52h-2.1602v-46.742h63.721m0-16.184h-83.92m0 16.184h5v46.742h-2v83.84h4.5v17.051h-7.5m46.199-83.451c4.16 0 7.4131 1.5453 9.7598 4.6387s3.5215 8.0007 3.5215 14.721v47.041h4.5195v17.051h-44.5v-17.051h4.9395v-48.961c1.0667-3.4133 2.7744-6.399 5.1211-8.959 2.3467-2.6667 4.9598-4.7469 7.8398-6.2402 2.9867-1.4933 5.9188-2.2402 8.7988-2.2402z" clip-path="url(#n-border)" fill="none" stroke="#000" stroke-width="6"/>
</svg>
