<svg class='letter-border' width="93.84" height="180" version="1.1" viewBox="0 0 24.828 47.625" xmlns="http://www.w3.org/2000/svg">
  <defs>
    <clipPath id="o-border">
      <path d="m0 0v16.184h34.967v46.688c-2.2185 0.54849-4.341 1.2588-6.3672 2.1328-5.44 2.24-10.08 5.3881-13.92 9.4414-3.7333 4.0533-6.614 8.6933-8.6406 13.92-2.0267 5.2267-3.0391 10.772-3.0391 16.639 0 5.76 1.0124 11.254 3.0391 16.48 2.0267 5.2267 4.9073 9.8666 8.6406 13.92 3.84 4.0533 8.4799 7.2529 13.92 9.5996 2.0261 0.83428 4.1487 1.5136 6.3672 2.0371v16.775h-34.967v16.184h93.84v-16.184h-34.965v-16.74c2.2755-0.52841 4.4514-1.2183 6.5254-2.0723 5.44-2.3467 10.026-5.5463 13.76-9.5996 3.84-4.0533 6.7206-8.6933 8.6406-13.92 2.0267-5.2267 3.0391-10.72 3.0391-16.48 0-5.8667-1.0124-11.412-3.0391-16.639-1.92-5.2267-4.8006-9.8666-8.6406-13.92-3.84-4.0533-8.4799-7.2014-13.92-9.4414-2.0151-0.88665-4.1369-1.6046-6.3652-2.1562v-46.664h34.965v-16.184zm47 79.725c4.0533 0 7.7324 1.0678 11.039 3.2012 3.3067 2.1333 5.9218 5.119 7.8418 8.959 2.0267 3.84 3.0391 8.1609 3.0391 12.961 0 4.9067-1.0124 9.2792-3.0391 13.119-1.92 3.7333-4.5351 6.719-7.8418 8.959-3.3067 2.1333-6.9857 3.2012-11.039 3.2012-4.16 0-7.8926-1.0678-11.199-3.2012s-5.9198-5.0655-7.8398-8.7988c-1.92-3.84-2.8809-8.2144-2.8809-13.121 0-4.9067 0.96086-9.2257 2.8809-12.959 1.92-3.84 4.5332-6.8276 7.8398-8.9609 3.3067-2.24 7.0392-3.3594 11.199-3.3594z" fill="#fff"/>
    </clipPath>
  </defs>
  <g transform="translate(1.524)">
    <path class='letter-border__path' transform="matrix(.26458 0 0 .26458 -1.524 0)" d="m0 16.184h34.967v46.688c-2.2185 0.54849-4.341 1.2588-6.3672 2.1328-5.44 2.24-10.08 5.3881-13.92 9.4414-3.7333 4.0533-6.614 8.6933-8.6406 13.92-2.0267 5.2267-3.0391 10.772-3.0391 16.639 0 5.76 1.0124 11.254 3.0391 16.48 2.0267 5.2267 4.9073 9.8666 8.6406 13.92 3.84 4.0533 8.4799 7.2529 13.92 9.5996 2.0261 0.83428 4.1487 1.5136 6.3672 2.0371v16.775h-34.967m0 16.184h93.84m0-16.184h-34.965v-16.74c2.2755-0.52841 4.4514-1.2183 6.5254-2.0723 5.44-2.3467 10.026-5.5463 13.76-9.5996 3.84-4.0533 6.7206-8.6933 8.6406-13.92 2.0267-5.2267 3.0391-10.72 3.0391-16.48 0-5.8667-1.0124-11.412-3.0391-16.639-1.92-5.2267-4.8006-9.8666-8.6406-13.92-3.84-4.0533-8.4799-7.2014-13.92-9.4414-2.0151-0.88665-4.1369-1.6046-6.3652-2.1562v-46.664h34.965m0-16.184h-93.84m47 79.725c4.0533 0 7.7324 1.0678 11.039 3.2012 3.3067 2.1333 5.9218 5.119 7.8418 8.959 2.0267 3.84 3.0391 8.1609 3.0391 12.961 0 4.9067-1.0124 9.2792-3.0391 13.119-1.92 3.7333-4.5351 6.719-7.8418 8.959-3.3067 2.1333-6.9857 3.2012-11.039 3.2012-4.16 0-7.8926-1.0678-11.199-3.2012s-5.9198-5.0655-7.8398-8.7988c-1.92-3.84-2.8809-8.2144-2.8809-13.121 0-4.9067 0.96086-9.2257 2.8809-12.959 1.92-3.84 4.5332-6.8276 7.8398-8.9609 3.3067-2.24 7.0392-3.3594 11.199-3.3594z" clip-path="url(#o-border)" fill="none" stroke="#000" stroke-width="6"/>
  </g>
</svg>
