<svg class='letter-mask' width="116.88" height="180" version="1.1" viewBox="0 0 30.924 47.625" xmlns="http://www.w3.org/2000/svg">
  <g transform="translate(1.524)">
    <path class='letter-mask__path' transform="matrix(.26458 0 0 .26458 -1.524 0)" d="m0 16.184v147.63h47.256v-17.303c-4.0838-0.79597-7.9596-2.0345-11.615-3.748-6.72-3.2-12.535-7.5209-17.441-12.961-4.8-5.5467-8.5326-11.734-11.199-18.561-2.6667-6.9333-4-14.026-4-21.279 0-7.5733 1.3868-14.773 4.1602-21.6 2.88-6.9333 6.773-13.067 11.68-18.4 5.0133-5.44 10.88-9.7074 17.6-12.801 3.4422-1.6135 7.0488-2.8172 10.816-3.6172v-17.363h-47.256zm69.625 0v17.234c4.0892 0.82055 7.9663 2.1108 11.615 3.9062 6.8267 3.3067 12.639 7.7346 17.439 13.281 4.8 5.5467 8.5345 11.732 11.201 18.559 2.6667 6.8267 4 13.868 4 21.121 0 7.4667-1.3868 14.666-4.1602 21.6-2.7733 6.8267-6.6683 12.96-11.682 18.4-4.9067 5.3333-10.773 9.5453-17.6 12.639-3.437 1.5821-7.0426 2.7544-10.814 3.5273v17.365h47.256v-147.63h-47.256zm-11.105 35.861c-5.44 0-10.24 1.1194-14.4 3.3594-4.0533 2.1333-7.465 5.014-10.238 8.6406-2.7733 3.6267-4.9071 7.6802-6.4004 12.16-1.3867 4.48-2.0801 9.0664-2.0801 13.76 0 4.9067 0.7469 9.6536 2.2402 14.24 1.4933 4.5867 3.6251 8.6936 6.3984 12.32 2.88 3.52 6.3471 6.3452 10.4 8.4785 4.16 2.0267 8.8534 3.041 14.08 3.041 5.3333 0 10.08-1.0659 14.24-3.1992 4.16-2.24 7.6271-5.1741 10.4-8.8008 2.7733-3.7333 4.8536-7.8403 6.2402-12.32 1.4933-4.5867 2.2402-9.1731 2.2402-13.76 0-4.9067-0.80039-9.6001-2.4004-14.08-1.4933-4.5867-3.6805-8.6402-6.5605-12.16-2.7733-3.6267-6.2404-6.4538-10.4-8.4805-4.0533-2.1333-8.6398-3.1992-13.76-3.1992z" stroke-width="6.5342"/>
  </g>
</svg>
