<svg class='letter-border' width="116.88" height="180" version="1.1" viewBox="0 0 30.924 47.625" xmlns="http://www.w3.org/2000/svg">
  <defs>
    <clipPath id="o-uppercase-border">
      <path d="m0 0v16.184h47.256v17.363c-3.7676 0.79994-7.3742 2.0037-10.816 3.6172-6.72 3.0933-12.586 7.3608-17.6 12.801-4.9067 5.3333-8.7997 11.467-11.68 18.4-2.7733 6.8267-4.1602 14.026-4.1602 21.6 0 7.2533 1.3333 14.346 4 21.279 2.6667 6.8267 6.3992 13.014 11.199 18.561 4.9067 5.44 10.721 9.7609 17.441 12.961 3.6556 1.7136 7.5314 2.9521 11.615 3.748v17.303h-47.256v16.184h116.88v-16.184h-47.256v-17.365c3.7719-0.77292 7.3774-1.9452 10.814-3.5273 6.8267-3.0933 12.693-7.3053 17.6-12.639 5.0133-5.44 8.9083-11.574 11.682-18.4 2.7733-6.9333 4.1602-14.133 4.1602-21.6 0-7.2533-1.3333-14.294-4-21.121-2.6667-6.8267-6.4012-13.012-11.201-18.559-4.8-5.5467-10.613-9.9746-17.439-13.281-3.6489-1.7955-7.526-3.0857-11.615-3.9062v-17.234h47.256v-16.184zm58.52 52.045c5.12 0 9.7064 1.0659 13.76 3.1992 4.16 2.0267 7.6271 4.8538 10.4 8.4805 2.88 3.52 5.0672 7.5735 6.5605 12.16 1.6 4.48 2.4004 9.1734 2.4004 14.08 0 4.5867-0.7469 9.1731-2.2402 13.76-1.3867 4.48-3.4669 8.587-6.2402 12.32-2.7733 3.6267-6.2404 6.5608-10.4 8.8008-4.16 2.1333-8.9069 3.1992-14.24 3.1992-5.2267 0-9.9201-1.0144-14.08-3.041-4.0533-2.1333-7.5204-4.9585-10.4-8.4785-2.7733-3.6267-4.9051-7.7336-6.3984-12.32-1.4933-4.5867-2.2402-9.3336-2.2402-14.24 0-4.6933 0.69341-9.2798 2.0801-13.76 1.4933-4.48 3.6271-8.5335 6.4004-12.16 2.7733-3.6267 6.185-6.5073 10.238-8.6406 4.16-2.24 8.9604-3.3594 14.4-3.3594z" fill="#fff"/>
    </clipPath>
  </defs>
  <g transform="translate(1.524)">
    <path class='letter-border__path' transform="matrix(.26458 0 0 .26458 -1.524 0)" d="m0 16.184h47.256v17.363c-3.7676 0.79994-7.3742 2.0037-10.816 3.6172-6.72 3.0933-12.586 7.3608-17.6 12.801-4.9067 5.3333-8.7997 11.467-11.68 18.4-2.7733 6.8267-4.1602 14.026-4.1602 21.6 0 7.2533 1.3333 14.346 4 21.279 2.6667 6.8267 6.3992 13.014 11.199 18.561 4.9067 5.44 10.721 9.7609 17.441 12.961 3.6556 1.7136 7.5314 2.9521 11.615 3.748v17.303h-47.256m0 16.184h116.88m0-16.184h-47.256v-17.365c3.7719-0.77292 7.3774-1.9452 10.814-3.5273 6.8267-3.0933 12.693-7.3053 17.6-12.639 5.0133-5.44 8.9083-11.574 11.682-18.4 2.7733-6.9333 4.1602-14.133 4.1602-21.6 0-7.2533-1.3333-14.294-4-21.121-2.6667-6.8267-6.4012-13.012-11.201-18.559-4.8-5.5467-10.613-9.9746-17.439-13.281-3.6489-1.7955-7.526-3.0857-11.615-3.9062v-17.234h47.256m0-16.184h-116.88m58.52 52.045c5.12 0 9.7064 1.0659 13.76 3.1992 4.16 2.0267 7.6271 4.8538 10.4 8.4805 2.88 3.52 5.0672 7.5735 6.5605 12.16 1.6 4.48 2.4004 9.1734 2.4004 14.08 0 4.5867-0.7469 9.1731-2.2402 13.76-1.3867 4.48-3.4669 8.587-6.2402 12.32-2.7733 3.6267-6.2404 6.5608-10.4 8.8008-4.16 2.1333-8.9069 3.1992-14.24 3.1992-5.2267 0-9.9201-1.0144-14.08-3.041-4.0533-2.1333-7.5204-4.9585-10.4-8.4785-2.7733-3.6267-4.9051-7.7336-6.3984-12.32-1.4933-4.5867-2.2402-9.3336-2.2402-14.24 0-4.6933 0.69341-9.2798 2.0801-13.76 1.4933-4.48 3.6271-8.5335 6.4004-12.16 2.7733-3.6267 6.185-6.5073 10.238-8.6406 4.16-2.24 8.9604-3.3594 14.4-3.3594z" clip-path="url(#o-uppercase-border)" fill="none" stroke="#000" stroke-width="6"/>
  </g>
</svg>
