<svg class='letter-mask' width="90.32" height="180" version="1.1" viewBox="0 0 23.897 47.625" xmlns="http://www.w3.org/2000/svg">
  <path class='letter-mask__path' transform="scale(.26458)" d="m0 16.184v147.63h5.5v-17.051h-2.5v-113.6h2.5v-16.98h-5.5zm22.5 0v16.98h28.66c5.2267 1e-6 10.027 1.0678 14.4 3.2012 4.3733 2.1333 8.1594 5.012 11.359 8.6387 3.3067 3.6267 5.8664 7.6802 7.6797 12.16 1.8133 4.48 2.7207 9.0664 2.7207 13.76 0 6.4-1.4938 12.48-4.4805 18.24-2.9867 5.76-7.0936 10.453-12.32 14.08-5.2267 3.6267-11.412 5.4414-18.559 5.4414h-26.881v38.08h-2.5801v17.051h67.82v-147.63h-67.82zm2.5801 36.342v36.799h25.6c2.6667 0 5.0678-0.7469 7.2012-2.2402 2.1333-1.4933 3.8391-3.6251 5.1191-6.3984 1.28-2.88 1.9199-6.1351 1.9199-9.7617 0-3.9467-0.7469-7.3048-2.2402-10.078-1.3867-2.7733-3.2529-4.8536-5.5996-6.2402-2.24-1.3867-4.6927-2.0801-7.3594-2.0801h-24.641z" stroke-width="5.744"/>
</svg>
