<svg class='letter-border' width="95.76" height="180" version="1.1" viewBox="0 0 25.336 47.625" xmlns="http://www.w3.org/2000/svg">
  <defs>
    <clipPath id="s-uppercase-border">
      <path d="m0 0v16.184h37.236v17.412c-3.1826 0.68873-6.227 1.6561-9.1172 2.9297-6.2933 2.6667-11.306 6.6667-15.039 12-3.6267 5.2267-5.4395 11.733-5.4395 19.52 0 5.76 1.1729 10.56 3.5195 14.4 2.3467 3.84 5.9207 7.0396 10.721 9.5996 4.8 2.4533 10.773 4.694 17.92 6.7207 5.9733 1.7067 11.146 3.3055 15.52 4.7988 4.3733 1.3867 7.7869 3.0409 10.24 4.9609 2.4533 1.92 3.6797 4.5867 3.6797 8 0 3.7333-1.5473 6.612-4.6406 8.6387-3.0933 2.0267-7.6263 3.041-13.6 3.041-4.2667 0-8.4806-0.53295-12.641-1.5996-4.16-1.0667-7.9995-2.3465-11.52-3.8398-3.52-1.6-6.5057-3.1473-8.959-4.6406-2.4533-1.6-4.1611-2.8798-5.1211-3.8398l-9.7598 19.039c4.3733 3.0933 9.1737 5.76 14.4 8 5.2267 2.1333 10.667 3.7876 16.32 4.9609 1.1719 0.24321 2.3438 0.45368 3.5156 0.64648v16.885h-37.236v16.184h95.76v-16.184h-37.076v-16.189c2.7496-0.29308 5.416-0.73794 7.9961-1.3418 5.0133-1.28 9.4928-3.2533 13.439-5.9199 3.9467-2.6667 7.0413-6.1337 9.2812-10.4 2.24-4.3733 3.3594-9.5997 3.3594-15.68 0-6.9333-1.4938-12.481-4.4805-16.641-2.88-4.2667-7.092-7.6802-12.639-10.24-5.44-2.6667-11.895-4.9054-19.361-6.7188-5.76-1.4933-10.558-2.8802-14.398-4.1602-3.84-1.28-6.7206-2.8273-8.6406-4.6406-1.92-1.8133-2.8809-4.266-2.8809-7.3594 0-4.0533 1.4938-7.2014 4.4805-9.4414 3.0933-2.24 7.6263-3.3594 13.6-3.3594 3.4133 0 6.7734 0.47945 10.08 1.4395 3.3067 0.85333 6.3478 1.8677 9.1211 3.041 2.88 1.1733 5.2792 2.3997 7.1992 3.6797 2.0267 1.28 3.4135 2.2924 4.1602 3.0391l9.7598-17.92c-3.3067-2.24-7.0392-4.3183-11.199-6.2383s-8.6414-3.4673-13.441-4.6406c-1.7667-0.44168-3.5781-0.7988-5.4355-1.0742v-16.867h37.076v-16.184z" fill="#fff"/>
    </clipPath>
  </defs>
  <g transform="translate(1.524)">
    <path class='letter-border__path' transform="matrix(.26458 0 0 .26458 -1.524 0)" d="m0 16.184h37.236v17.412c-3.1826 0.68873-6.227 1.6561-9.1172 2.9297-6.2933 2.6667-11.306 6.6667-15.039 12-3.6267 5.2267-5.4395 11.733-5.4395 19.52 0 5.76 1.1729 10.56 3.5195 14.4 2.3467 3.84 5.9207 7.0396 10.721 9.5996 4.8 2.4533 10.773 4.694 17.92 6.7207 5.9733 1.7067 11.146 3.3055 15.52 4.7988 4.3733 1.3867 7.7869 3.0409 10.24 4.9609 2.4533 1.92 3.6797 4.5867 3.6797 8 0 3.7333-1.5473 6.612-4.6406 8.6387-3.0933 2.0267-7.6263 3.041-13.6 3.041-4.2667 0-8.4806-0.53295-12.641-1.5996-4.16-1.0667-7.9995-2.3465-11.52-3.8398-3.52-1.6-6.5057-3.1473-8.959-4.6406-2.4533-1.6-4.1611-2.8798-5.1211-3.8398l-9.7598 19.039c4.3733 3.0933 9.1737 5.76 14.4 8 5.2267 2.1333 10.667 3.7876 16.32 4.9609 1.1719 0.24321 2.3438 0.45368 3.5156 0.64648v16.885h-37.236m0 16.184h95.76m0-16.184h-37.076v-16.189c2.7496-0.29308 5.416-0.73794 7.9961-1.3418 5.0133-1.28 9.4928-3.2533 13.439-5.9199 3.9467-2.6667 7.0413-6.1337 9.2812-10.4 2.24-4.3733 3.3594-9.5997 3.3594-15.68 0-6.9333-1.4938-12.481-4.4805-16.641-2.88-4.2667-7.092-7.6802-12.639-10.24-5.44-2.6667-11.895-4.9054-19.361-6.7188-5.76-1.4933-10.558-2.8802-14.398-4.1602-3.84-1.28-6.7206-2.8273-8.6406-4.6406-1.92-1.8133-2.8809-4.266-2.8809-7.3594 0-4.0533 1.4938-7.2014 4.4805-9.4414 3.0933-2.24 7.6263-3.3594 13.6-3.3594 3.4133 0 6.7734 0.47945 10.08 1.4395 3.3067 0.85333 6.3478 1.8677 9.1211 3.041 2.88 1.1733 5.2792 2.3997 7.1992 3.6797 2.0267 1.28 3.4135 2.2924 4.1602 3.0391l9.7598-17.92c-3.3067-2.24-7.0392-4.3183-11.199-6.2383s-8.6414-3.4673-13.441-4.6406c-1.7667-0.44168-3.5781-0.7988-5.4355-1.0742v-16.867h37.076m0-16.184h-95.76" clip-path="url(#s-uppercase-border)" fill="none" stroke="#000" stroke-width="6"/>
  </g>
</svg>
