<svg class='letter-mask' width="62.48" height="180" version="1.1" viewBox="0 0 16.531 47.625" xmlns="http://www.w3.org/2000/svg">
  <g transform="translate(1.524)">
    <path class='letter-mask__path' transform="matrix(.26458 0 0 .26458 -1.524 0)" d="m0 16.184v147.63h26.186v-17.201c-0.4267-0.15267-0.84909-0.31555-1.2656-0.49023-3.3067-1.3867-5.9733-3.5739-8-6.5606-1.92-3.0933-2.8809-7.0933-2.8809-12v-48.16h-11.039v-16.48h11.039v-27.199h3v-19.541h-17.039zm32.039 0v19.541h3.4414v27.199h17.6v16.48h-17.6v40.961c0.10667 2.88 0.90706 4.9602 2.4004 6.2402 1.4933 1.28 3.3596 1.9199 5.5996 1.9199 2.24 0 4.4253-0.37443 6.5586-1.1211 2.1333-0.74667 3.8411-1.3866 5.1211-1.9199l4.3203 16.961c-1.8133 0.74667-4.0005 1.5986-6.5605 2.5586s-5.3336 1.7069-8.3203 2.2402c-1.1292 0.25093-2.2685 0.43925-3.4141 0.5918v15.98h21.295v-147.63h-30.441z" stroke-width="4.7774"/>
  </g>
</svg>
