<svg class='letter-border' width="89.52" height="180" version="1.1" viewBox="0 0 23.685 47.625" xmlns="http://www.w3.org/2000/svg">
  <defs>
    <clipPath id="u-border">
      <path d="m0 0v16.184h5v46.742h-2v52.479c0 8.3065 1.3367 15.085 4 20.348v28.064h-7v16.184h89.52v-16.184h-6.5234v-16.598c1.0683-0.11604 2.214-0.25672 3.5234-0.45313v-17.441c-1.8133-0.21333-3.1467-0.79977-4-1.7598-0.74667-0.96-1.1191-2.5588-1.1191-4.7988v-59.84h-1.9004v-46.742h10.02v-16.184zm22 16.184h40v46.742h-2.041v52c-1.6 3.4133-3.5733 6.2385-5.9199 8.4785-2.24 2.24-4.7462 3.9478-7.5195 5.1211-2.6667 1.0667-5.3868 1.5996-8.1602 1.5996-4.5867 0-8.0518-1.6008-10.398-4.8008-2.3467-3.3067-3.5215-8.1586-3.5215-14.559v-47.84h-2.4395zm41.16 114.9 0.48047 6.7207c0.42667 3.0933 1.8135 5.546 4.1602 7.3594 0.09139 0.0636 0.18989 0.11848 0.2832 0.17969v18.473h-43.584v-15.785c1.5526 0.219 3.1836 0.33398 4.9004 0.33398 7.04 0 13.493-1.4403 19.359-4.3203 5.8667-2.9867 10.667-7.3076 14.4-12.961z" fill="#fff"/>
    </clipPath>
  </defs>
  <path class='letter-border__path' transform="scale(.26458)" d="m0 16.184h5v46.742h-2v52.479c0 8.3065 1.3367 15.085 4 20.348v28.064h-7m0 16.184h89.52m0-16.184h-6.5234v-16.598c1.0683-0.11604 2.214-0.25672 3.5234-0.45313v-17.441c-1.8133-0.21333-3.1467-0.79977-4-1.7598-0.74667-0.96-1.1191-2.5588-1.1191-4.7988v-59.84h-1.9004v-46.742h10.02m0-16.184h-89.52m22 16.184h40v46.742h-2.041v52c-1.6 3.4133-3.5733 6.2385-5.9199 8.4785-2.24 2.24-4.7462 3.9478-7.5195 5.1211-2.6667 1.0667-5.3868 1.5996-8.1602 1.5996-4.5867 0-8.0518-1.6008-10.398-4.8008-2.3467-3.3067-3.5215-8.1586-3.5215-14.559v-47.84h-2.4395zm41.16 114.9 0.48047 6.7207c0.42667 3.0933 1.8135 5.546 4.1602 7.3594 0.09139 0.0636 0.18989 0.11848 0.2832 0.17969v18.473h-43.584v-15.785c1.5526 0.219 3.1836 0.33398 4.9004 0.33398 7.04 0 13.493-1.4403 19.359-4.3203 5.8667-2.9867 10.667-7.3076 14.4-12.961z" clip-path="url(#u-border)" fill="none" stroke="#000" stroke-width="6"/>
</svg>
