<svg class='letter-border' width="105.36" height="180" version="1.1" viewBox="0 0 27.876 47.625" xmlns="http://www.w3.org/2000/svg">
  <defs>
    <clipPath id="u-uppercase-border">
      <path d="m0 0v16.184h7v16.98h-4v57.92c0 7.36 0.90737 14.455 2.7207 21.281 1.8133 6.72 4.6385 12.747 8.4785 18.08 3.9467 5.3333 9.068 9.5453 15.361 12.639 3.6968 1.7252 7.8529 2.9374 12.439 3.666v17.066h-42v16.184h105.36v-16.184h-41.359v-17.174c4.1287-0.715 7.9114-1.8384 11.32-3.3984 6.2933-2.9867 11.413-7.0402 15.359-12.16 4.0533-5.2267 6.9874-11.253 8.8008-18.08 1.92-6.8267 2.8789-14.133 2.8789-21.92v-57.92h-3.8594v-16.98h6.8594v-16.184zm21 16.184h63.5v16.98h-4.0605v57.92c0 4.5867-0.47945 9.1216-1.4395 13.602-0.96 4.3733-2.5073 8.3198-4.6406 11.84-2.0267 3.52-4.8519 6.3452-8.4785 8.4785-3.52 2.0267-7.9479 3.041-13.281 3.041-5.2267 0-9.5991-1.0144-13.119-3.041-3.52-2.0267-6.3471-4.7984-8.4805-8.3184-2.1333-3.52-3.6806-7.4665-4.6406-11.84-0.85333-4.48-1.2793-9.0684-1.2793-13.762v-57.92h-4.0801z" fill="#fff"/>
    </clipPath>
  </defs>
  <path class='letter-border__path' transform="scale(.26458)" d="m0 16.184h7v16.98h-4v57.92c0 7.36 0.90737 14.455 2.7207 21.281 1.8133 6.72 4.6385 12.747 8.4785 18.08 3.9467 5.3333 9.068 9.5453 15.361 12.639 3.6968 1.7252 7.8529 2.9374 12.439 3.666v17.066h-42m0 16.184h105.36m0-16.184h-41.359v-17.174c4.1287-0.715 7.9114-1.8384 11.32-3.3984 6.2933-2.9867 11.413-7.0402 15.359-12.16 4.0533-5.2267 6.9874-11.253 8.8008-18.08 1.92-6.8267 2.8789-14.133 2.8789-21.92v-57.92h-3.8594v-16.98h6.8594m0-16.184h-105.36m21 16.184h63.5v16.98h-4.0605v57.92c0 4.5867-0.47945 9.1216-1.4395 13.602-0.96 4.3733-2.5073 8.3198-4.6406 11.84-2.0267 3.52-4.8519 6.3452-8.4785 8.4785-3.52 2.0267-7.9479 3.041-13.281 3.041-5.2267 0-9.5991-1.0144-13.119-3.041-3.52-2.0267-6.3471-4.7984-8.4805-8.3184-2.1333-3.52-3.6806-7.4665-4.6406-11.84-0.85333-4.48-1.2793-9.0684-1.2793-13.762v-57.92h-4.0801z" clip-path="url(#u-uppercase-border)" fill="none" stroke="#000" stroke-width="6"/>
</svg>
