<svg class='letter-mask' width="139.76" height="180" version="1.1" viewBox="0 0 36.978 47.625" xmlns="http://www.w3.org/2000/svg">
  <path class='letter-mask__path' transform="scale(.26458)" d="m0 16.184v147.63h40v-17.051h-2.1191l-34.881-83.842h3.5v-46.74h-6.5zm20.088 0v46.74h3.0723l24.959 63.361 9.7617-27.361-14.561-35.84h2.6797v-46.9h-25.912zm38.797 0v46.9h2.1953l8.6406 25.602 8.7988-25.602h1.9805v-46.9h-21.615zm34.5 0v46.9h2.8945l-14.559 35.84 9.9199 27.361 24.799-63.361h3.0606v-46.74h-26.115zm39.703 0v46.74h3.6719l-35.039 83.842h-1.7207v17.051h39.76v-147.63h-6.6719zm-63.367 94.582-13.76 36h-1.9609v17.051h32v-17.051h-2.1992l-14.08-36z" stroke-width="7.1452"/>
</svg>
