<svg class='letter-mask' width="92.88" height="180" version="1.1" viewBox="0 0 24.574 47.625" xmlns="http://www.w3.org/2000/svg">
  <path class='letter-mask__path' transform="scale(.26458)" d="m0 16.184v147.63h6.1992v-17.051h-3.1992v-116.8h2.5v-13.781h-5.5zm21.5 0v13.781h2.9395v47.68c2.9867-5.0133 6.8797-8.9598 11.68-11.84 4.9067-2.88 10.614-4.3203 17.121-4.3203 5.44 0 10.399 1.1729 14.879 3.5195 4.48 2.24 8.3215 5.3881 11.521 9.4414 3.3067 4.0533 5.8129 8.6933 7.5195 13.92 1.8133 5.2267 2.7207 10.826 2.7207 16.799 0 5.9733-1.0144 11.574-3.041 16.801-1.92 5.2267-4.6402 9.8666-8.1602 13.92-3.52 3.9467-7.6805 7.0393-12.48 9.2793-2.5008 1.1367-5.1407 1.9612-7.9141 2.4922v16.16h34.596v-147.63h-71.381zm24.539 63.541c-3.0933 0-6.079 0.7469-8.959 2.2402-2.7733 1.3867-5.2795 3.3064-7.5195 5.7598-2.1333 2.4533-3.8411 5.227-5.1211 8.3203v20c0.64 2.1333 1.6544 4.0531 3.041 5.7598 1.4933 1.7067 3.1991 3.2005 5.1191 4.4805 1.92 1.1733 3.8933 2.1322 5.9199 2.8789 2.1333 0.64 4.2136 0.96094 6.2402 0.96094 3.4133 0 6.506-0.63992 9.2793-1.9199 2.88-1.3867 5.3347-3.1995 7.3613-5.4395 2.1333-2.24 3.7322-4.8551 4.7988-7.8418 1.1733-3.0933 1.7598-6.293 1.7598-9.5996 0-4.5867-0.95891-8.7987-2.8789-12.639-1.8133-3.9467-4.373-7.0947-7.6797-9.4414-3.2-2.3467-6.988-3.5195-11.361-3.5195zm-24.318 52.48v14.561h-3.5215v17.051h28.086v-15.697c-4.6463-0.51783-8.8897-1.8712-12.725-4.0742-5.0133-2.88-8.9598-6.8265-11.84-11.84z" stroke-width="5.8249"/>
</svg>
