<svg class='letter-border' width="97.52" height="180" version="1.1" viewBox="0 0 25.802 47.625" xmlns="http://www.w3.org/2000/svg">
 <defs>
  <clipPath id="b-uppercase-border">
   <path d="m0 0v16.184h29.828v16.98h-26.828v113.6h32.828v17.051h-35.828v16.184h97.52v-16.184h-39.32v-17.059c6.4891-0.0357 12.463-1.1498 17.92-3.3535 5.6533-2.24 10.135-5.4931 13.441-9.7598 3.3067-4.3733 4.959-9.7602 4.959-16.16 0-7.36-1.9198-13.547-5.7598-18.561-3.7333-5.0133-8.8527-8.4784-15.359-10.398 5.3333-2.3467 9.3868-5.9742 12.16-10.881 2.7733-4.9067 4.1602-10.08 4.1602-15.52 0-4.8-1.0678-9.3864-3.2012-13.76-2.0267-4.48-5.0123-8.1075-8.959-10.881-3.84-2.88-8.4264-4.3203-13.76-4.3203h-11.602v-16.98h45.32v-16.184zm25.08 52.045h30.4c2.3467 0 4.4269 0.58643 6.2402 1.7598 1.92 1.1733 3.4118 2.8276 4.4785 4.9609 1.1733 2.1333 1.7598 4.6395 1.7598 7.5195 0 2.9867-0.63992 5.5464-1.9199 7.6797-1.1733 2.1333-2.7722 3.7857-4.7988 4.959-2.0267 1.1733-4.2674 1.7617-6.7207 1.7617h-29.439zm0 46.08h33.92c2.56 0 4.8007 0.69341 6.7207 2.0801 2.0267 1.28 3.6255 3.0928 4.7988 5.4394 1.1733 2.24 1.7598 4.7997 1.7598 7.6797 0 2.6667-0.63992 5.1213-1.9199 7.3613s-3.0393 4.0528-5.2793 5.4394c-2.1333 1.28-4.5326 1.9199-7.1992 1.9199h-32.801z" fill="#fff"/>
  </clipPath>
 </defs>
 <g transform="translate(1.524)">
  <path class='letter-border__path' transform="matrix(.26458 0 0 .26458 -1.524 0)" d="m97.52 0h-97.52m0 16.184h29.828v16.98h-26.828v113.6h32.828v17.051h-35.828m0 16.184h97.52m0-16.184h-39.32v-17.059c6.4891-0.0357 12.463-1.1498 17.92-3.3535 5.6533-2.24 10.135-5.4931 13.441-9.7598 3.3067-4.3733 4.959-9.7602 4.959-16.16 0-7.36-1.9198-13.547-5.7598-18.561-3.7333-5.0133-8.8527-8.4784-15.359-10.398 5.3333-2.3467 9.3868-5.9742 12.16-10.881 2.7733-4.9067 4.1602-10.08 4.1602-15.52 0-4.8-1.0678-9.3864-3.2012-13.76-2.0267-4.48-5.0123-8.1075-8.959-10.881-3.84-2.88-8.4264-4.3203-13.76-4.3203h-11.602v-16.98h45.32m-72.439 35.861h30.4c2.3467 0 4.4269 0.58643 6.2402 1.7598 1.92 1.1733 3.4118 2.8276 4.4785 4.9609 1.1733 2.1333 1.7598 4.6395 1.7598 7.5195 0 2.9867-0.63992 5.5464-1.9199 7.6797-1.1733 2.1333-2.7722 3.7857-4.7988 4.959-2.0267 1.1733-4.2674 1.7617-6.7207 1.7617h-29.439zm0 46.08h33.92c2.56 0 4.8007 0.69341 6.7207 2.0801 2.0267 1.28 3.6255 3.0928 4.7988 5.4394 1.1733 2.24 1.7598 4.7997 1.7598 7.6797 0 2.6667-0.63992 5.1213-1.9199 7.3613s-3.0393 4.0528-5.2793 5.4394c-2.1333 1.28-4.5326 1.9199-7.1992 1.9199h-32.801z" clip-path="url(#b-uppercase-border)" fill="none" stroke="#000" stroke-width="6"/>
 </g>
</svg>
