<svg class='letter-mask' width="97.52" height="180" version="1.1" viewBox="0 0 25.802 47.625" xmlns="http://www.w3.org/2000/svg">
 <g transform="translate(1.524)">
  <path transform="matrix(.26458 0 0 .26458 -1.524 0)" d="m0 16.184v147.63h35.828v-17.051h-32.828v-113.6h26.828v-16.98h-29.828zm52.199 0v16.98h11.602c5.3333 0 9.9198 1.4403 13.76 4.3203 3.9467 2.7733 6.9323 6.4009 8.959 10.881 2.1333 4.3733 3.2012 8.9598 3.2012 13.76 0 5.44-1.3868 10.613-4.1602 15.52-2.7733 4.9067-6.8268 8.5342-12.16 10.881 6.5067 1.92 11.626 5.3851 15.359 10.398 3.84 5.0133 5.7598 11.201 5.7598 18.561 0 6.4-1.6523 11.787-4.959 16.16-3.3067 4.2667-7.7881 7.5198-13.441 9.7598-5.4568 2.2037-11.431 3.3178-17.92 3.3535v17.059h39.32v-147.63h-45.32zm-27.119 35.861v28.641h29.439c2.4533 0 4.694-0.58839 6.7207-1.7617 2.0267-1.1733 3.6255-2.8257 4.7988-4.959 1.28-2.1333 1.9199-4.693 1.9199-7.6797 0-2.88-0.58643-5.3862-1.7598-7.5195-1.0667-2.1333-2.5585-3.7876-4.4785-4.9609-1.8133-1.1733-3.8936-1.7598-6.2402-1.7598h-30.4zm0 46.08v29.92h32.801c2.6667 0 5.0659-0.63992 7.1992-1.9199 2.24-1.3867 3.9993-3.1994 5.2793-5.4394s1.9199-4.6947 1.9199-7.3613c0-2.88-0.58643-5.4397-1.7598-7.6797-1.1733-2.3467-2.7722-4.1594-4.7988-5.4394-1.92-1.3867-4.1607-2.0801-6.7207-2.0801h-33.92z" stroke-width="5.9686"/>
 </g>
</svg>
