<svg class='letter-mask' width="98.16" height="180" version="1.1" viewBox="0 0 25.972 47.625" xmlns="http://www.w3.org/2000/svg">
  <path class='letter-mask__path' transform="scale(.26458)" d="m0 16.184v147.63h31.711v-17.01c-1.6665-0.48874-3.2929-1.0823-4.8711-1.8027-4.8-2.24-9.014-5.3326-12.641-9.2793-3.52-3.9467-6.2917-8.5331-8.3184-13.76-1.92-5.3333-2.8809-11.039-2.8809-17.119 0-8.1067 1.6008-15.413 4.8008-21.92 3.2-6.6133 7.626-11.842 13.279-15.682s12.106-5.7598 19.359-5.7598c6.1867 0 11.734 1.5473 16.641 4.6406 5.0133 2.9867 8.9064 6.8262 11.68 11.52v-47.68h2.832v-13.781h-71.592zm87.592 0v13.781h2.6074v92.801c0 2.24 0.37443 3.8388 1.1211 4.7988 0.74667 0.96 2.0265 1.5464 3.8398 1.7598v17.441c-1.7411 0.34824-3.3163 0.60715-4.7559 0.79297v16.258h7.7559v-147.63h-10.568zm-40.432 63.541c-3.3067 0-6.2943 0.69341-8.9609 2.0801-2.6667 1.3867-5.0124 3.2529-7.0391 5.5996-1.92 2.3467-3.4138 5.0668-4.4805 8.1602-0.96 3.0933-1.4395 6.3464-1.4395 9.7598s0.53294 6.6664 1.5996 9.7598c1.1733 2.9867 2.8276 5.5998 4.9609 7.8398 2.1333 2.24 4.586 4.0012 7.3594 5.2812 2.88 1.28 5.9726 1.9199 9.2793 1.9199 2.0267 0 4.0534-0.32094 6.0801-0.96094 2.1333-0.74666 4.1066-1.7056 5.9199-2.8789 1.92-1.28 3.5743-2.7738 4.9609-4.4805 1.4933-1.8133 2.6127-3.7331 3.3594-5.7598v-20c-1.0667-3.0933-2.7725-5.867-5.1191-8.3203-2.3467-2.4533-4.9598-4.3731-7.8398-5.7598-2.88-1.4933-5.7606-2.2402-8.6406-2.2402zm24.799 52.48c-3.0933 5.2267-7.3053 9.2267-12.639 12-4.9618 2.6328-10.167 3.9994-15.609 4.1328v15.479h34.693v-17.594c-0.69103-0.35112-1.3481-0.7562-1.9648-1.2188-2.4533-1.92-3.8402-4.4262-4.1602-7.5195l-0.32031-5.2793z" stroke-width="5.9881"/>
</svg>
