<svg class='letter-mask' width="97.84" height="180" version="1.1" viewBox="0 0 25.887 47.625" xmlns="http://www.w3.org/2000/svg">
  <g transform="translate(1.524)">
    <path class='letter-mask__path' transform="matrix(.26458 0 0 .26458 -1.524 0)" d="m0 16.184v147.63h6v-17.051h-3v-113.6h21.816v-16.98h-24.816zm48.816 0v16.98h4.4238c5.2267 0 10.027 1.0678 14.4 3.2012 4.48 2.1333 8.3195 5.012 11.52 8.6387 3.3067 3.6267 5.8129 7.6802 7.5195 12.16 1.8133 4.48 2.7207 9.0684 2.7207 13.762 0 4.8-0.85388 9.4399-2.5605 13.92-1.6 4.3733-3.9457 8.2129-7.0391 11.52-3.0933 3.3067-6.7209 5.8664-10.881 7.6797l25.92 42.721h-4.3398v17.051h7.3398v-147.63h-49.023zm-23.736 36.342v36.799h27.68c2.7733 0 5.226-0.79844 7.3594-2.3984 2.1333-1.7067 3.8411-3.9474 5.1211-6.7207 1.28-2.7733 1.9199-5.866 1.9199-9.2793 0-3.6267-0.7469-6.7747-2.2402-9.4414-1.4933-2.7733-3.4131-4.9586-5.7598-6.5586-2.24-1.6-4.6927-2.4004-7.3594-2.4004h-26.721zm0 56.16v38.08h-3.0801v17.051h52.5v-17.051h-3.9805l-23.359-38.08h-22.08z" stroke-width="5.9783"/>
  </g>
</svg>
