<svg class='letter-mask' width="89.52" height="180" version="1.1" viewBox="0 0 23.685 47.625" xmlns="http://www.w3.org/2000/svg">
  <path class='letter-mask__path' transform="scale(.26458)" d="m0 16.184v147.63h7v-28.064c-2.6633-5.2628-4-12.041-4-20.348v-52.479h2v-46.742h-5zm22 0v46.742h2.4395v47.84c0 6.4 1.1748 11.252 3.5215 14.559 2.3467 3.2 5.8118 4.8008 10.398 4.8008 2.7733 0 5.4935-0.53294 8.1602-1.5996 2.7733-1.1733 5.2795-2.8811 7.5195-5.1211 2.3467-2.24 4.3199-5.0652 5.9199-8.4785v-52h2.041v-46.742h-40zm57.5 0v46.742h1.9004v59.84c0 2.24 0.37247 3.8388 1.1191 4.7988 0.85333 0.96 2.1867 1.5464 4 1.7598v17.441c-1.3094 0.19641-2.4551 0.33709-3.5234 0.45313v16.598h6.5234v-147.63h-10.02zm-16.34 114.9c-3.7333 5.6533-8.5337 9.9743-14.4 12.961-5.8667 2.88-12.319 4.3203-19.359 4.3203-1.7168 0-3.3478-0.11498-4.9004-0.33398v15.785h43.584v-18.473c-0.093315-0.06121-0.19181-0.11611-0.2832-0.17969-2.3467-1.8133-3.7335-4.266-4.1602-7.3594l-0.48047-6.7207z" stroke-width="5.7185"/>
</svg>
