<svg class='letter-mask' width="105.36" height="180" version="1.1" viewBox="0 0 27.876 47.625" xmlns="http://www.w3.org/2000/svg">
  <path class='letter-mask__path' transform="scale(.26458)" d="m0 16.184v147.63h42v-17.066c-4.5865-0.72867-8.7427-1.9408-12.439-3.666-6.2933-3.0933-11.415-7.3053-15.361-12.639-3.84-5.3333-6.6652-11.36-8.4785-18.08-1.8133-6.8267-2.7207-13.921-2.7207-21.281v-57.92h4v-16.98h-7zm21 0v16.98h4.0801v57.92c0 4.6933 0.42596 9.2817 1.2793 13.762 0.96 4.3733 2.5073 8.3198 4.6406 11.84 2.1333 3.52 4.9605 6.2917 8.4805 8.3184 3.52 2.0267 7.8925 3.041 13.119 3.041 5.3333 0 9.7613-1.0144 13.281-3.041 3.6267-2.1333 6.4519-4.9585 8.4785-8.4785 2.1333-3.52 3.6806-7.4665 4.6406-11.84 0.96-4.48 1.4395-9.0149 1.4395-13.602v-57.92h4.0605v-16.98h-63.5zm77.5 0v16.98h3.8594v57.92c-1e-5 7.7867-0.95891 15.093-2.8789 21.92-1.8133 6.8267-4.7475 12.853-8.8008 18.08-3.9467 5.12-9.066 9.1735-15.359 12.16-3.4089 1.56-7.1916 2.6834-11.32 3.3984v17.174h41.359v-147.63h-6.8594z" stroke-width="6.2039"/>
</svg>
