<svg class='letter-border' width="106.53" height="180" version="1.1" viewBox="0 0 28.186 47.625" xmlns="http://www.w3.org/2000/svg">
  <defs>
    <clipPath class='letter-border__clip-path' id="clipPath-H1">
      <path d="m0 0v16.184h6.6992v13.941h-5.6992v116.64h5.6992v16.889h-6.6992v16.184h106.53v-16.184h-6.9043v-16.889h5.9043v-116.64h-5.9043v-13.941h6.9043v-16.184zm24.627 16.184h57.072v13.941h-6.2461v44.453h-44.375v-44.453h-6.4512zm6.4512 81.129h44.375v49.453h6.2461v16.889h-57.072v-16.889h6.4512z" fill="#fff" stroke-width="2.6116"/>
    </clipPath>
  </defs>
  <path class='letter-border__path' transform="scale(.26458)" d="m0 16.184h6.6992v13.941h-5.6992v116.64h5.6992v16.889h-6.6992m0 16.184h106.53m0-16.184h-6.9043v-16.889h5.9043v-116.64h-5.9043v-13.941h6.9043m0-16.184h-106.53m24.627 16.184h57.072v13.941h-6.2461v44.453h-44.375v-44.453h-6.4512zm6.4512 81.129h44.375v49.453h6.2461v16.889h-57.072v-16.889h6.4512z" clip-path="url(#clipPath-H1)" fill="none" stroke="#000" stroke-width="6"/>
</svg>
