<svg class='letter-border' width="88.72" height="180" version="1.1" viewBox="0 0 23.474 47.625" xmlns="http://www.w3.org/2000/svg">
  <defs>
    <clipPath id="a-border">
      <path d="m0 0v16.184h36.838v45.57c-4.3126 0.38675-8.5011 1.197-12.559 2.4512-5.76 1.8133-11.412 4.5335-16.959 8.1602l6.8789 14.08c4.5867-3.0933 8.9611-5.441 13.121-7.041 4.16-1.6 8.5325-2.4004 13.119-2.4004 6.1867 0 10.827 1.4403 13.92 4.3203 3.2 2.88 4.8008 6.987 4.8008 12.32v4.4805c-2.6667-1.1733-5.8128-2.0272-9.4395-2.5605s-7.2007-0.79883-10.721-0.79883c-7.04 0-13.281 1.1194-18.721 3.3594-5.44 2.24-9.7055 5.4396-12.799 9.5996-2.9867 4.0533-4.4805 8.8002-4.4805 14.24 0 5.0133 1.2264 9.5463 3.6797 13.6 2.56 3.9467 6.0271 7.0928 10.4 9.4395 2.0317 1.0158 4.1786 1.7905 6.4297 2.3457v16.467h-23.51v16.184h88.721v-16.184h-6.3262v-16.547c1.0823-0.15923 2.1169-0.30236 3.3262-0.50391v-17.441c-1.8133-0.21333-3.1467-0.79977-4-1.7598-0.74667-0.96-1.1211-2.5588-1.1211-4.7988v-26.721c0-11.093-3.3601-19.626-10.08-25.6-3.249-2.9345-7.1455-5.1438-11.682-6.6367v-47.625h29.883v-16.184zm42.359 107.08c2.6667 0 5.4938 0.32094 8.4805 0.96094 2.9867 0.53333 5.7603 1.3337 8.3203 2.4004v8.4805c0 1.0667-0.37443 2.2395-1.1211 3.5195-0.74667 1.28-1.7056 2.5598-2.8789 3.8398-1.92 1.8133-4.4262 3.3587-7.5195 4.6387-3.0933 1.1733-6.2414 1.7617-9.4414 1.7617-3.0933 0-5.76-0.58839-8-1.7617-2.24-1.1733-3.9458-2.7187-5.1191-4.6387-1.1733-1.92-1.7598-3.9468-1.7598-6.0801 0-3.9467 1.7593-7.0928 5.2793-9.4395 3.6267-2.4533 8.2131-3.6816 13.76-3.6816zm20 26.561 0.48047 4.3203c0.53333 2.7733 1.8667 5.1191 4 7.0391 0.01854 0.0159 0.03991 0.0292 0.05859 0.0449v18.768h-22.936v-17.389c1.6079-0.52947 3.2072-1.1543 4.7969-1.9023 5.44-2.56 9.9729-6.1875 13.6-10.881z" fill="#fff"/>
    </clipPath>
  </defs>
  <g transform="translate(1.524)">
    <path class='letter-border__path' transform="matrix(.26458 0 0 .26458 -1.524 0)" d="m0 180h88.721m0-16.184h-6.3262v-16.547c1.0823-0.15923 2.1169-0.30236 3.3262-0.50391v-17.441c-1.8133-0.21333-3.1467-0.79977-4-1.7598-0.74667-0.96-1.1211-2.5588-1.1211-4.7988v-26.721c0-11.093-3.3601-19.626-10.08-25.6-3.249-2.9345-7.1455-5.1438-11.682-6.6367v-47.625h29.883m0-16.184h-88.721m0 16.184h36.838v45.57c-4.3126 0.38675-8.5011 1.197-12.559 2.4512-5.76 1.8133-11.412 4.5335-16.959 8.1602l6.8789 14.08c4.5867-3.0933 8.9611-5.441 13.121-7.041 4.16-1.6 8.5325-2.4004 13.119-2.4004 6.1867 0 10.827 1.4403 13.92 4.3203 3.2 2.88 4.8008 6.987 4.8008 12.32v4.4805c-2.6667-1.1733-5.8128-2.0272-9.4395-2.5605s-7.2007-0.79883-10.721-0.79883c-7.04 0-13.281 1.1194-18.721 3.3594-5.44 2.24-9.7055 5.4396-12.799 9.5996-2.9867 4.0533-4.4805 8.8002-4.4805 14.24 0 5.0133 1.2264 9.5463 3.6797 13.6 2.56 3.9467 6.0271 7.0928 10.4 9.4395 2.0317 1.0158 4.1786 1.7905 6.4297 2.3457v16.467h-23.51m42.359-56.732c2.6667 0 5.4938 0.32094 8.4805 0.96094 2.9867 0.53333 5.7603 1.3337 8.3203 2.4004v8.4805c0 1.0667-0.37443 2.2395-1.1211 3.5195-0.74667 1.28-1.7056 2.5598-2.8789 3.8398-1.92 1.8133-4.4262 3.3587-7.5195 4.6387-3.0933 1.1733-6.2414 1.7617-9.4414 1.7617-3.0933 0-5.76-0.58839-8-1.7617-2.24-1.1733-3.9458-2.7187-5.1191-4.6387-1.1733-1.92-1.7598-3.9468-1.7598-6.0801 0-3.9467 1.7593-7.0928 5.2793-9.4395 3.6267-2.4533 8.2131-3.6816 13.76-3.6816zm20 26.561 0.48047 4.3203c0.53333 2.7733 1.8667 5.1191 4 7.0391 0.01854 0.0159 0.03991 0.0292 0.05859 0.0449v18.768h-22.936v-17.389c1.6079-0.52947 3.2072-1.1543 4.7969-1.9023 5.44-2.56 9.9729-6.1875 13.6-10.881z" clip-path="url(#a-border)" fill="none" stroke="#000" stroke-width="6"/>
  </g>
</svg>
