<svg class='letter-border' width="112.08" height="180" version="1.1" viewBox="0 0 29.654 47.625" xmlns="http://www.w3.org/2000/svg">
  <defs>
    <clipPath id="a-uppercase-border">
      <path d="m0 0v16.184h48.541v16.98h-3.6211l-41.92 113.6h4.0742v17.051h-7.0742v16.184h112.08v-16.184h-6.9844v-17.051h3.9844l-41.76-113.6h-3.834v-16.98h48.594v-16.184zm56.119 56.045 15.682 46.881h-32zm-20 62.4h39.682l10.559 28.32h3.7891v17.051h-68.127v-17.051h3.6992z" fill="#fff"/>
    </clipPath>
  </defs>
  <g transform="translate(1.524)">
    <path class='letter-border__path' transform="matrix(.26458 0 0 .26458 -1.524 0)" d="m0 16.184h48.541v16.98h-3.6211l-41.92 113.6h4.0742v17.051h-7.0742m0 16.184h112.08m0-16.184h-6.9844v-17.051h3.9844l-41.76-113.6h-3.834v-16.98h48.594m0-16.184h-112.08m56.119 56.045 15.682 46.881h-32zm-20 62.4h39.682l10.559 28.32h3.7891v17.051h-68.127v-17.051h3.6992z" clip-path="url(#a-uppercase-border)" fill="none" stroke="#000" stroke-width="6"/>
  </g>
</svg>
