<svg class='letter-border' width="92.88" height="180" version="1.1" viewBox="0 0 24.574 47.625" xmlns="http://www.w3.org/2000/svg">
  <defs>
    <clipPath id="b-border">
      <path d="m0 0v16.184h5.5v13.781h-2.5v116.8h3.1992v17.051h-6.1992v16.184h92.881v-16.184h-34.596v-16.16c2.7733-0.53103 5.4133-1.3555 7.9141-2.4922 4.8-2.24 8.9605-5.3326 12.48-9.2793 3.52-4.0533 6.2402-8.6933 8.1602-13.92 2.0267-5.2267 3.041-10.827 3.041-16.801 0-5.9733-0.90737-11.572-2.7207-16.799-1.7067-5.2267-4.2129-9.8666-7.5195-13.92-3.2-4.0533-7.0415-7.2014-11.521-9.4414-4.48-2.3467-9.4389-3.5195-14.879-3.5195-6.5067 0-12.214 1.4403-17.121 4.3203-4.8 2.88-8.693 6.8265-11.68 11.84v-47.68h-2.9395v-13.781h71.381v-16.184zm46.039 79.725c4.3733 0 8.1613 1.1729 11.361 3.5195 3.3067 2.3467 5.8664 5.4947 7.6797 9.4414 1.92 3.84 2.8789 8.052 2.8789 12.639 0 3.3067-0.58643 6.5063-1.7598 9.5996-1.0667 2.9867-2.6655 5.6018-4.7988 7.8418-2.0267 2.24-4.4813 4.0528-7.3613 5.4395-2.7733 1.28-5.866 1.9199-9.2793 1.9199-2.0267 0-4.1069-0.32094-6.2402-0.96094-2.0267-0.74666-3.9999-1.7056-5.9199-2.8789-1.92-1.28-3.6258-2.7738-5.1191-4.4805-1.3867-1.7067-2.401-3.6264-3.041-5.7598v-20c1.28-3.0933 2.9878-5.867 5.1211-8.3203 2.24-2.4533 4.7462-4.3731 7.5195-5.7598 2.88-1.4933 5.8657-2.2402 8.959-2.2402zm-24.318 52.48c2.88 5.0133 6.8265 8.9598 11.84 11.84 3.8349 2.203 8.0783 3.5564 12.725 4.0742v15.697h-28.086v-17.051h3.5215z" fill="#fff"/>
    </clipPath>
  </defs>
  <path class='letter-border__path' transform="scale(.26458)" d="m0 16.184h5.5v13.781h-2.5v116.8h3.1992v17.051h-6.1992m0 16.184h92.881m0-16.184h-34.596v-16.16c2.7733-0.53103 5.4133-1.3555 7.9141-2.4922 4.8-2.24 8.9605-5.3326 12.48-9.2793 3.52-4.0533 6.2402-8.6933 8.1602-13.92 2.0267-5.2267 3.041-10.827 3.041-16.801 0-5.9733-0.90737-11.572-2.7207-16.799-1.7067-5.2267-4.2129-9.8666-7.5195-13.92-3.2-4.0533-7.0415-7.2014-11.521-9.4414-4.48-2.3467-9.4389-3.5195-14.879-3.5195-6.5067 0-12.214 1.4403-17.121 4.3203-4.8 2.88-8.693 6.8265-11.68 11.84v-47.68h-2.9395v-13.781h71.381m0-16.184h-92.881m46.039 79.725c4.3733 0 8.1613 1.1729 11.361 3.5195 3.3067 2.3467 5.8664 5.4947 7.6797 9.4414 1.92 3.84 2.8789 8.052 2.8789 12.639 0 3.3067-0.58643 6.5063-1.7598 9.5996-1.0667 2.9867-2.6655 5.6018-4.7988 7.8418-2.0267 2.24-4.4813 4.0528-7.3613 5.4395-2.7733 1.28-5.866 1.9199-9.2793 1.9199-2.0267 0-4.1069-0.32094-6.2402-0.96094-2.0267-0.74666-3.9999-1.7056-5.9199-2.8789-1.92-1.28-3.6258-2.7738-5.1191-4.4805-1.3867-1.7067-2.401-3.6264-3.041-5.7598v-20c1.28-3.0933 2.9878-5.867 5.1211-8.3203 2.24-2.4533 4.7462-4.3731 7.5195-5.7598 2.88-1.4933 5.8657-2.2402 8.959-2.2402zm-24.318 52.48c2.88 5.0133 6.8265 8.9598 11.84 11.84 3.8349 2.203 8.0783 3.5564 12.725 4.0742v15.697h-28.086v-17.051h3.5215z" clip-path="url(#b-border)" fill="none" stroke="#000" stroke-width="6"/>
</svg>
