<svg class='letter-border' width="88.4" height="180" version="1.1" viewBox="0 0 23.389 47.625" xmlns="http://www.w3.org/2000/svg">
  <defs>
    <clipPath id="c-border">
      <path d="m0 0v16.184h34v46.91c-3.7342 0.98499-7.189 2.4185-10.359 4.3105-6.6133 3.9467-11.735 9.2265-15.361 15.84-3.52 6.5067-5.2793 13.708-5.2793 21.602 0 5.76 1.0124 11.252 3.0391 16.479 2.1333 5.2267 5.1209 9.9201 8.9609 14.08 3.84 4.0533 8.4799 7.2529 13.92 9.5996 1.6285 0.67056 3.3273 1.2294 5.0801 1.6992v17.113h-34v16.184h88.4v-16.184h-31.02v-16.367c2.3051-0.44261 4.5022-1.0375 6.5781-1.8047 5.0133-1.92 9.3343-4.5332 12.961-7.8398 3.7333-3.3067 6.5605-7.0392 8.4805-11.199l-20.961-6.4004c-0.85333 1.92-2.1867 3.6258-4 5.1191s-3.8936 2.6682-6.2402 3.5215c-2.24 0.85334-4.6392 1.2793-7.1992 1.2793-4.0533 0-7.7324-1.0678-11.039-3.2012-3.3067-2.24-5.9733-5.2257-8-8.959-1.92-3.84-2.8809-8.2125-2.8809-13.119 0-5.0133 0.96086-9.3878 2.8809-13.121 1.92-3.84 4.5332-6.7741 7.8398-8.8008 3.4133-2.1333 7.1459-3.1992 11.199-3.1992 3.6267 0 6.9333 0.85388 9.9199 2.5605 2.9867 1.6 5.3859 3.9457 7.1992 7.0391l20.961-6.4004c-3.2-6.4-8.0539-11.573-14.561-15.52-3.9151-2.3748-8.2967-4.0307-13.139-4.9766v-46.244h31.02v-16.184z" fill="#fff"/>
    </clipPath>
  </defs>
  <g transform="translate(1.524)">
    <path class='letter-border__path' transform="matrix(.26458 0 0 .26458 -1.524 0)" d="m0 16.184h34v46.91c-3.7342 0.98499-7.189 2.4185-10.359 4.3105-6.6133 3.9467-11.735 9.2265-15.361 15.84-3.52 6.5067-5.2793 13.708-5.2793 21.602 0 5.76 1.0124 11.252 3.0391 16.479 2.1333 5.2267 5.1209 9.9201 8.9609 14.08 3.84 4.0533 8.4799 7.2529 13.92 9.5996 1.6285 0.67056 3.3273 1.2294 5.0801 1.6992v17.113h-34m0 16.184h88.4m0-16.184h-31.02v-16.367c2.3051-0.44261 4.5022-1.0375 6.5781-1.8047 5.0133-1.92 9.3343-4.5332 12.961-7.8398 3.7333-3.3067 6.5605-7.0392 8.4805-11.199l-20.961-6.4004c-0.85333 1.92-2.1867 3.6258-4 5.1191s-3.8936 2.6682-6.2402 3.5215c-2.24 0.85334-4.6392 1.2793-7.1992 1.2793-4.0533 0-7.7324-1.0678-11.039-3.2012-3.3067-2.24-5.9733-5.2257-8-8.959-1.92-3.84-2.8809-8.2125-2.8809-13.119 0-5.0133 0.96086-9.3878 2.8809-13.121 1.92-3.84 4.5332-6.7741 7.8398-8.8008 3.4133-2.1333 7.1459-3.1992 11.199-3.1992 3.6267 0 6.9333 0.85388 9.9199 2.5605 2.9867 1.6 5.3859 3.9457 7.1992 7.0391l20.961-6.4004c-3.2-6.4-8.0539-11.573-14.561-15.52-3.9151-2.3748-8.2967-4.0307-13.139-4.9766v-46.244h31.02m0-16.184h-88.4" clip-path="url(#c-border)" fill="none" stroke="#000" stroke-width="6"/>
  </g>
</svg>
