<svg class='letter-mask' width="107.76" height="180" version="1.1" viewBox="0 0 28.511 47.625" xmlns="http://www.w3.org/2000/svg">
  <g transform="translate(1.524)">
    <path class='letter-mask__path' transform="matrix(.26458 0 0 .26458 -1.524 0)" d="m0 16.184v147.63h45.236v-17.627c-3.2813-0.81739-6.4313-1.9456-9.4355-3.4238-6.72-3.4133-12.535-7.8947-17.441-13.441-4.8-5.6533-8.586-11.946-11.359-18.879-2.6667-7.04-4-14.135-4-21.281 0-6.9333 1.2264-13.705 3.6797-20.318 2.56-6.72 6.241-12.8 11.041-18.24 4.8-5.5467 10.666-9.9211 17.6-13.121 3.1089-1.4827 6.4211-2.6138 9.916-3.4316v-17.869h-45.236zm66.684 0v16.787c7.2535 0.86891 13.705 3.0116 19.355 6.4336 7.68 4.5867 13.388 10.56 17.121 17.92l-16.961 11.68c-1.92-4.2667-4.4262-7.6248-7.5195-10.078-3.0933-2.56-6.3999-4.3212-9.9199-5.2812-3.52-1.0667-6.9871-1.5996-10.4-1.5996-5.5467 0-10.399 1.1194-14.559 3.3594-4.0533 2.24-7.4669 5.1741-10.24 8.8008-2.7733 3.6267-4.8536 7.6802-6.2402 12.16-1.28 4.48-1.9199 8.9595-1.9199 13.439 0 5.0133 0.80039 9.8672 2.4004 14.561 1.6 4.5867 3.8388 8.6936 6.7188 12.32 2.9867 3.52 6.5072 6.3452 10.561 8.4785 4.16 2.0267 8.6929 3.041 13.6 3.041 3.52 0 7.094-0.58643 10.721-1.7598 3.6267-1.1733 6.9867-3.0396 10.08-5.5996s5.4926-5.8666 7.1992-9.9199l18.08 10.398c-2.24 5.6533-5.9191 10.454-11.039 14.4-5.0133 3.9467-10.668 6.9343-16.961 8.9609-3.374 1.0866-6.7328 1.871-10.076 2.375v16.756h41.076v-147.63h-41.076z" stroke-width="6.2741"/>
  </g>
</svg>
