<svg class='letter-border' width="107.76" height="180" version="1.1" viewBox="0 0 28.511 47.625" xmlns="http://www.w3.org/2000/svg">
  <defs>
    <clipPath id="c-uppercase-border">
      <path d="m0 0v16.184h45.236v17.869c-3.4949 0.81786-6.8071 1.9489-9.916 3.4316-6.9333 3.2-12.8 7.5744-17.6 13.121-4.8 5.44-8.481 11.52-11.041 18.24-2.4533 6.6133-3.6797 13.385-3.6797 20.318 0 7.1467 1.3333 14.241 4 21.281 2.7733 6.9333 6.5594 13.226 11.359 18.879 4.9067 5.5467 10.721 10.028 17.441 13.441 3.0042 1.4783 6.1542 2.6064 9.4355 3.4238v17.627h-45.236v16.184h107.76v-16.184h-41.076v-16.756c3.3434-0.50402 6.7021-1.2884 10.076-2.375 6.2933-2.0267 11.948-5.0143 16.961-8.9609 5.12-3.9467 8.7991-8.7471 11.039-14.4l-18.08-10.398c-1.7067 4.0533-4.1059 7.3599-7.1992 9.9199s-6.4534 4.4263-10.08 5.5996c-3.6267 1.1733-7.2007 1.7598-10.721 1.7598-4.9067 0-9.4396-1.0144-13.6-3.041-4.0533-2.1333-7.5739-4.9585-10.561-8.4785-2.88-3.6267-5.1188-7.7336-6.7188-12.32-1.6-4.6933-2.4004-9.5472-2.4004-14.561 0-4.48 0.63992-8.9595 1.9199-13.439 1.3867-4.48 3.4669-8.5335 6.2402-12.16 2.7733-3.6267 6.1869-6.5608 10.24-8.8008 4.16-2.24 9.0119-3.3594 14.559-3.3594 3.4133 0 6.8804 0.53294 10.4 1.5996 3.52 0.96 6.8266 2.7213 9.9199 5.2812 3.0933 2.4533 5.5995 5.8115 7.5195 10.078l16.961-11.68c-3.7333-7.36-9.4411-13.333-17.121-17.92-5.6503-3.422-12.102-5.5647-19.355-6.4336v-16.787h41.076v-16.184z" fill="#fff"/>
    </clipPath>
  </defs>
  <g transform="translate(1.524)">
    <path class='letter-border__path' transform="matrix(.26458 0 0 .26458 -1.524 0)" d="m0 16.184h45.236v17.869c-3.4949 0.81786-6.8071 1.9489-9.916 3.4316-6.9333 3.2-12.8 7.5744-17.6 13.121-4.8 5.44-8.481 11.52-11.041 18.24-2.4533 6.6133-3.6797 13.385-3.6797 20.318 0 7.1467 1.3333 14.241 4 21.281 2.7733 6.9333 6.5594 13.226 11.359 18.879 4.9067 5.5467 10.721 10.028 17.441 13.441 3.0042 1.4783 6.1542 2.6064 9.4355 3.4238v17.627h-45.236m0 16.184h107.76m0-16.184h-41.076v-16.756c3.3434-0.50402 6.7021-1.2884 10.076-2.375 6.2933-2.0267 11.948-5.0143 16.961-8.9609 5.12-3.9467 8.7991-8.7471 11.039-14.4l-18.08-10.398c-1.7067 4.0533-4.1059 7.3599-7.1992 9.9199s-6.4534 4.4263-10.08 5.5996c-3.6267 1.1733-7.2007 1.7598-10.721 1.7598-4.9067 0-9.4396-1.0144-13.6-3.041-4.0533-2.1333-7.5739-4.9585-10.561-8.4785-2.88-3.6267-5.1188-7.7336-6.7188-12.32-1.6-4.6933-2.4004-9.5472-2.4004-14.561 0-4.48 0.63992-8.9595 1.9199-13.439 1.3867-4.48 3.4669-8.5335 6.2402-12.16 2.7733-3.6267 6.1869-6.5608 10.24-8.8008 4.16-2.24 9.0119-3.3594 14.559-3.3594 3.4133 0 6.8804 0.53294 10.4 1.5996 3.52 0.96 6.8266 2.7213 9.9199 5.2812 3.0933 2.4533 5.5995 5.8115 7.5195 10.078l16.961-11.68c-3.7333-7.36-9.4411-13.333-17.121-17.92-5.6503-3.422-12.102-5.5647-19.355-6.4336v-16.787h41.076m0-16.184h-107.76" clip-path="url(#c-uppercase-border)" fill="none" stroke="#000" stroke-width="6"/>
  </g>
</svg>
