<svg class='letter-border' width="98.16" height="180" version="1.1" viewBox="0 0 25.972 47.625" xmlns="http://www.w3.org/2000/svg">
  <defs>
    <clipPath id="d-border">
      <path d="m0 0v16.184h71.592v13.781h-2.832v47.68c-2.7733-4.6933-6.6664-8.5329-11.68-11.52-4.9067-3.0933-10.454-4.6406-16.641-4.6406-7.2533 0-13.706 1.9198-19.359 5.7598s-10.079 9.0683-13.279 15.682c-3.2 6.5067-4.8008 13.813-4.8008 21.92 0 6.08 0.96086 11.786 2.8809 17.119 2.0267 5.2267 4.7984 9.8131 8.3184 13.76 3.6267 3.9467 7.8406 7.0393 12.641 9.2793 1.5782 0.72047 3.2046 1.314 4.8711 1.8027v17.01h-31.711v16.184h98.16v-16.184h-7.7559v-16.258c1.4395-0.18582 3.0147-0.44474 4.7559-0.79297v-17.441c-1.8133-0.21333-3.0932-0.79977-3.8398-1.7598-0.74667-0.96-1.1211-2.5588-1.1211-4.7988v-92.801h-2.6074v-13.781h10.568v-16.184zm47.16 79.725c2.88 0 5.7606 0.7469 8.6406 2.2402 2.88 1.3867 5.4932 3.3064 7.8398 5.7598 2.3467 2.4533 4.0525 5.227 5.1191 8.3203v20c-0.74667 2.0267-1.866 3.9464-3.3594 5.7598-1.3867 1.7067-3.0409 3.2005-4.9609 4.4805-1.8133 1.1733-3.7866 2.1322-5.9199 2.8789-2.0267 0.64-4.0534 0.96094-6.0801 0.96094-3.3067 0-6.3993-0.63992-9.2793-1.9199-2.7733-1.28-5.226-3.0412-7.3594-5.2812-2.1333-2.24-3.7876-4.8532-4.9609-7.8398-1.0667-3.0933-1.5996-6.3464-1.5996-9.7598s0.47945-6.6664 1.4395-9.7598c1.0667-3.0933 2.5605-5.8135 4.4805-8.1602 2.0267-2.3467 4.3724-4.2129 7.0391-5.5996 2.6667-1.3867 5.6543-2.0801 8.9609-2.0801zm24.799 52.48 0.32031 5.2793c0.32 3.0933 1.7068 5.5995 4.1602 7.5195 0.61674 0.46255 1.2738 0.86763 1.9648 1.2188v17.594h-34.693v-15.479c5.4424-0.13344 10.648-1.5 15.609-4.1328 5.3333-2.7733 9.5453-6.7733 12.639-12z" fill="#fff"/>
    </clipPath>
  </defs>
  <path class='letter-border__path' transform="scale(.26458)" d="m0 16.184h71.592v13.781h-2.832v47.68c-2.7733-4.6933-6.6664-8.5329-11.68-11.52-4.9067-3.0933-10.454-4.6406-16.641-4.6406-7.2533 0-13.706 1.9198-19.359 5.7598s-10.079 9.0683-13.279 15.682c-3.2 6.5067-4.8008 13.813-4.8008 21.92 0 6.08 0.96086 11.786 2.8809 17.119 2.0267 5.2267 4.7984 9.8131 8.3184 13.76 3.6267 3.9467 7.8406 7.0393 12.641 9.2793 1.5782 0.72047 3.2046 1.314 4.8711 1.8027v17.01h-31.711m0 16.184h98.16m0-16.184h-7.7559v-16.258c1.4395-0.18582 3.0147-0.44474 4.7559-0.79297v-17.441c-1.8133-0.21333-3.0932-0.79977-3.8398-1.7598-0.74667-0.96-1.1211-2.5588-1.1211-4.7988v-92.801h-2.6074v-13.781h10.568m0-16.184h-98.16m47.16 79.725c2.88 0 5.7606 0.7469 8.6406 2.2402 2.88 1.3867 5.4932 3.3064 7.8398 5.7598 2.3467 2.4533 4.0525 5.227 5.1191 8.3203v20c-0.74667 2.0267-1.866 3.9464-3.3594 5.7598-1.3867 1.7067-3.0409 3.2005-4.9609 4.4805-1.8133 1.1733-3.7866 2.1322-5.9199 2.8789-2.0267 0.64-4.0534 0.96094-6.0801 0.96094-3.3067 0-6.3993-0.63992-9.2793-1.9199-2.7733-1.28-5.226-3.0412-7.3594-5.2812-2.1333-2.24-3.7876-4.8532-4.9609-7.8398-1.0667-3.0933-1.5996-6.3464-1.5996-9.7598s0.47945-6.6664 1.4395-9.7598c1.0667-3.0933 2.5605-5.8135 4.4805-8.1602 2.0267-2.3467 4.3724-4.2129 7.0391-5.5996 2.6667-1.3867 5.6543-2.0801 8.9609-2.0801zm24.799 52.48 0.32031 5.2793c0.32 3.0933 1.7068 5.5995 4.1602 7.5195 0.61674 0.46255 1.2738 0.86763 1.9648 1.2188v17.594h-34.693v-15.479c5.4424-0.13344 10.648-1.5 15.609-4.1328 5.3333-2.7733 9.5453-6.7733 12.639-12z" clip-path="url(#d-border)" fill="none" stroke="#000" stroke-width="6"/>
</svg>
