<svg class='letter-border' width="94" height="180" version="1.1" viewBox="0 0 24.871 47.625" xmlns="http://www.w3.org/2000/svg">
  <defs>
    <clipPath id="e-border">
      <path d="m0 0v16.184h35.732v46.551c-4.3816 1.0042-8.4134 2.6113-12.092 4.8301-6.6133 3.9467-11.735 9.2265-15.361 15.84-3.52 6.6133-5.2793 13.92-5.2793 21.92 0 5.76 1.0124 11.254 3.0391 16.48 2.1333 5.12 5.1209 9.7064 8.9609 13.76 3.84 3.9467 8.4799 7.0928 13.92 9.4395 2.1675 0.89248 4.4419 1.5998 6.8125 2.1367v16.676h-35.732v16.184h94v-16.184h-34.887v-16.738c1.7197-0.39139 3.3921-0.86206 5.0059-1.4336 5.12-1.92 9.5479-4.5332 13.281-7.8398 3.84-3.3067 6.7722-7.0927 8.7988-11.359l-18.398-5.1211c-1.3867 3.4133-4.0018 6.187-7.8418 8.3203-3.7333 2.0267-7.7314 3.041-11.998 3.041-3.7333 0-7.2539-0.80039-10.561-2.4004-3.2-1.7067-5.8667-4.1613-8-7.3613-2.0267-3.2-3.253-6.9326-3.6797-11.199h64.799c0.10667-0.85333 0.21365-1.9192 0.32031-3.1992 0.10667-1.3867 0.16016-2.72 0.16016-4 0-7.5733-1.7593-14.614-5.2793-21.121-3.4133-6.6133-8.3742-11.893-14.881-15.84-3.5178-2.1914-7.4293-3.7844-11.727-4.791v-46.59h34.887v-16.184zm47 77.004c3.9467 0 7.5207 0.90737 10.721 2.7207 3.2 1.7067 5.7597 4.1594 7.6797 7.3594 2.0267 3.0933 3.253 6.7744 3.6797 11.041h-43.84c0.42667-4.2667 1.5995-7.9477 3.5195-11.041 2.0267-3.2 4.5864-5.6527 7.6797-7.3594 3.2-1.8133 6.7206-2.7207 10.561-2.7207z" fill="#fff"/>
    </clipPath>
  </defs>
  <g transform="translate(1.524)">
    <path class='letter-border__path' transform="matrix(.26458 0 0 .26458 -1.524 0)" d="m0 16.184h35.732v46.551c-4.3816 1.0042-8.4134 2.6113-12.092 4.8301-6.6133 3.9467-11.735 9.2265-15.361 15.84-3.52 6.6133-5.2793 13.92-5.2793 21.92 0 5.76 1.0124 11.254 3.0391 16.48 2.1333 5.12 5.1209 9.7064 8.9609 13.76 3.84 3.9467 8.4799 7.0928 13.92 9.4395 2.1675 0.89248 4.4419 1.5998 6.8125 2.1367v16.676h-35.732m0 16.184h94m0-16.184h-34.887v-16.738c1.7197-0.39139 3.3921-0.86206 5.0059-1.4336 5.12-1.92 9.5479-4.5332 13.281-7.8398 3.84-3.3067 6.7722-7.0927 8.7988-11.359l-18.398-5.1211c-1.3867 3.4133-4.0018 6.187-7.8418 8.3203-3.7333 2.0267-7.7314 3.041-11.998 3.041-3.7333 0-7.2539-0.80039-10.561-2.4004-3.2-1.7067-5.8667-4.1613-8-7.3613-2.0267-3.2-3.253-6.9326-3.6797-11.199h64.799c0.10667-0.85333 0.21365-1.9192 0.32031-3.1992 0.10667-1.3867 0.16016-2.72 0.16016-4 0-7.5733-1.7593-14.614-5.2793-21.121-3.4133-6.6133-8.3742-11.893-14.881-15.84-3.5178-2.1914-7.4293-3.7844-11.727-4.791v-46.59h34.887m0-16.184h-94m47 77.004c3.9467 0 7.5207 0.90737 10.721 2.7207 3.2 1.7067 5.7597 4.1594 7.6797 7.3594 2.0267 3.0933 3.253 6.7744 3.6797 11.041h-43.84c0.42667-4.2667 1.5995-7.9477 3.5195-11.041 2.0267-3.2 4.5864-5.6527 7.6797-7.3594 3.2-1.8133 6.7206-2.7207 10.561-2.7207z" clip-path="url(#e-border)" fill="none" stroke="#000" stroke-width="6"/>
  </g>
</svg>
