<svg class='letter-mask' width="94" height="180" version="1.1" viewBox="0 0 24.871 47.625" xmlns="http://www.w3.org/2000/svg">
  <g transform="translate(1.524)">
    <path class='letter-mask__path' transform="matrix(.26458 0 0 .26458 -1.524 0)" d="m0 16.184v147.63h35.732v-16.676c-2.3706-0.53689-4.645-1.2442-6.8125-2.1367-5.44-2.3467-10.08-5.4928-13.92-9.4395-3.84-4.0533-6.8276-8.6398-8.9609-13.76-2.0267-5.2267-3.0391-10.72-3.0391-16.48 0-8 1.7593-15.307 5.2793-21.92 3.6267-6.6133 8.748-11.893 15.361-15.84 3.6784-2.2187 7.7102-3.8258 12.092-4.8301v-46.551h-35.732zm59.113 0v46.59c4.2973 1.0066 8.2088 2.5996 11.727 4.791 6.5067 3.9467 11.468 9.2265 14.881 15.84 3.52 6.5067 5.2793 13.548 5.2793 21.121 0 1.28-0.05349 2.6133-0.16016 4-0.10667 1.28-0.21365 2.3459-0.32031 3.1992h-64.799c0.42667 4.2667 1.653 7.9992 3.6797 11.199 2.1333 3.2 4.8 5.6547 8 7.3613 3.3067 1.6 6.8272 2.4004 10.561 2.4004 4.2667 0 8.2647-1.0144 11.998-3.041 3.84-2.1333 6.4551-4.907 7.8418-8.3203l18.398 5.1211c-2.0267 4.2667-4.9588 8.0527-8.7988 11.359-3.7333 3.3067-8.1613 5.9198-13.281 7.8398-1.6137 0.57153-3.2862 1.0422-5.0059 1.4336v16.738h34.887v-147.63h-34.887zm-12.113 60.82c-3.84 0-7.3605 0.90737-10.561 2.7207-3.0933 1.7067-5.653 4.1594-7.6797 7.3594-1.92 3.0933-3.0929 6.7744-3.5195 11.041h43.84c-0.42667-4.2667-1.653-7.9477-3.6797-11.041-1.92-3.2-4.4797-5.6527-7.6797-7.3594-3.2-1.8133-6.774-2.7207-10.721-2.7207z" stroke-width="5.8599"/>
  </g>
</svg>
