<svg class='letter-border' width="65.68" height="180" version="1.1" viewBox="0 0 17.378 47.625" xmlns="http://www.w3.org/2000/svg">
  <defs>
    <clipPath id="f-border">
      <path d="m0 0v16.184h26.246v17c-3.7207 2.7279-6.6757 6.447-8.8457 11.182-2.24 5.0133-3.3613 10.987-3.3613 17.92v5.1191h-11.039v16.32h11.039v63.041h2.668v17.051h-16.707v16.184h65.68v-16.184h-32.973v-17.051h2.7734v-63.041h20.48v-16.32h-20.48v-5.9199c0-4.9067 0.95891-8.6392 2.8789-11.199 1.92-2.56 4.6936-3.8398 8.3203-3.8398 1.92 0 3.9467 0.31898 6.0801 0.95898 2.1333 0.53333 3.9996 1.2267 5.5996 2.0801l4.3203-16.16c-3.4133-1.6-6.8804-2.8264-10.4-3.6797-3.3443-0.83608-6.6889-1.2565-10.033-1.2734v-12.188h23.434v-16.184z" fill="#fff"/>
    </clipPath>
  </defs>
  <g transform="translate(1.524)">
    <path class='letter-border__path' transform="matrix(.26458 0 0 .26458 -1.524 0)" d="m0 16.184h26.246v17c-3.7207 2.7279-6.6757 6.447-8.8457 11.182-2.24 5.0133-3.3613 10.987-3.3613 17.92v5.1191h-11.039v16.32h11.039v63.041h2.668v17.051h-16.707m0 16.184h65.68m0-16.184h-32.973v-17.051h2.7734v-63.041h20.48v-16.32h-20.48v-5.9199c0-4.9067 0.95891-8.6392 2.8789-11.199 1.92-2.56 4.6936-3.8398 8.3203-3.8398 1.92 0 3.9467 0.31898 6.0801 0.95898 2.1333 0.53333 3.9996 1.2267 5.5996 2.0801l4.3203-16.16c-3.4133-1.6-6.8804-2.8264-10.4-3.6797-3.3443-0.83608-6.6889-1.2565-10.033-1.2734v-12.188h23.434m0-16.184h-65.68" clip-path="url(#f-border)" fill="none" stroke="#000" stroke-width="6"/>
  </g>
</svg>
