<svg class='letter-mask' width="65.68" height="180" version="1.1" viewBox="0 0 17.378 47.625" xmlns="http://www.w3.org/2000/svg">
  <g transform="translate(1.524)">
    <path class='letter-mask__path' transform="matrix(.26458 0 0 .26458 -1.524 0)" d="m0 16.184v147.63h16.707v-17.051h-2.668v-63.041h-11.039v-16.32h11.039v-5.1191c0-6.9333 1.1213-12.907 3.3613-17.92 2.17-4.7346 5.125-8.4537 8.8457-11.182v-17h-26.246zm42.246 0v12.188c3.3443 0.016898 6.6889 0.43735 10.033 1.2734 3.52 0.85333 6.9871 2.0797 10.4 3.6797l-4.3203 16.16c-1.6-0.85333-3.4663-1.5467-5.5996-2.0801-2.1333-0.64-4.1601-0.95898-6.0801-0.95898-3.6267 0-6.4003 1.2798-8.3203 3.8398-1.92 2.56-2.8789 6.2926-2.8789 11.199v5.9199h20.48v16.32h-20.48v63.041h-2.7734v17.051h32.973v-147.63h-23.434z" stroke-width="4.8983"/>
  </g>
</svg>
