<svg class='letter-border' width="83.92" height="180" version="1.1" viewBox="0 0 22.204 47.625" xmlns="http://www.w3.org/2000/svg">
  <defs>
    <clipPath id="h-border">
      <path d="m0 0v16.184h5.5v13.781h-2.5v116.8h2.5v17.051h-5.5v16.184h83.92v-16.184h-5.6348v-17.051h2.6348v-52.32c0-4.16-0.37248-8.16-1.1191-12-0.74667-3.9467-2.08-7.4672-4-10.561-1.92-3.2-4.5867-5.7062-8-7.5195-3.4133-1.92-7.8413-2.8809-13.281-2.8809-6.2933 0-12.106 1.4938-17.439 4.4805-5.3333 2.9867-9.5473 7.1471-12.641 12.48v-48.48h-2.9395v-13.781h62.42v-16.184zm45.4 80.365c4.3733 0 7.7869 1.5988 10.24 4.7988 2.56 3.2 3.8398 8.0539 3.8398 14.561v47.041h2.8047v17.051h-40.785v-17.051h2.9395v-48.961c1.0667-3.4133 2.7209-6.399 4.9609-8.959 2.3467-2.6667 4.9598-4.7469 7.8398-6.2402 2.88-1.4933 5.6002-2.2402 8.1602-2.2402z" fill="#fff"/>
    </clipPath>
  </defs>
  <path class='letter-border__path' transform="scale(.26458)" d="m0 16.184h5.5v13.781h-2.5v116.8h2.5v17.051h-5.5m0 16.184h83.92m0-16.184h-5.6348v-17.051h2.6348v-52.32c0-4.16-0.37248-8.16-1.1191-12-0.74667-3.9467-2.08-7.4672-4-10.561-1.92-3.2-4.5867-5.7062-8-7.5195-3.4133-1.92-7.8413-2.8809-13.281-2.8809-6.2933 0-12.106 1.4938-17.439 4.4805-5.3333 2.9867-9.5473 7.1471-12.641 12.48v-48.48h-2.9395v-13.781h62.42m0-16.184h-83.92m45.4 80.365c4.3733 0 7.7869 1.5988 10.24 4.7988 2.56 3.2 3.8398 8.0539 3.8398 14.561v47.041h2.8047v17.051h-40.785v-17.051h2.9395v-48.961c1.0667-3.4133 2.7209-6.399 4.9609-8.959 2.3467-2.6667 4.9598-4.7469 7.8398-6.2402 2.88-1.4933 5.6002-2.2402 8.1602-2.2402z" clip-path="url(#h-border)" fill="none" stroke="#000" stroke-width="6"/>
</svg>
