<svg class='letter-mask' width="83.92" height="180" version="1.1" viewBox="0 0 22.204 47.625" xmlns="http://www.w3.org/2000/svg">
  <path class='letter-mask__path' transform="scale(.26458)" d="m0 16.184v147.63h5.5v-17.051h-2.5v-116.8h2.5v-13.781h-5.5zm21.5 0v13.781h2.9395v48.48c3.0933-5.3333 7.3073-9.4938 12.641-12.48 5.3333-2.9867 11.146-4.4805 17.439-4.4805 5.44 0 9.8679 0.96086 13.281 2.8809 3.4133 1.8133 6.08 4.3195 8 7.5195 1.92 3.0933 3.2533 6.6139 4 10.561 0.74667 3.84 1.1191 7.84 1.1191 12v52.32h-2.6348v17.051h5.6348v-147.63h-62.42zm23.9 64.182c-2.56 0-5.2802 0.7469-8.1602 2.2402-2.88 1.4933-5.4932 3.5736-7.8398 6.2402-2.24 2.56-3.8943 5.5457-4.9609 8.959v48.961h-2.9395v17.051h40.785v-17.051h-2.8047v-47.041c0-6.5067-1.2798-11.361-3.8398-14.561-2.4533-3.2-5.8669-4.7988-10.24-4.7988z" stroke-width="5.5368"/>
</svg>
