<svg class='letter-border' width="27.44" height="180" version="1.1" viewBox="0 0 7.2602 47.625" xmlns="http://www.w3.org/2000/svg">
  <defs>
    <clipPath id="i-border">
      <path d="m0 0v16.184h8v13.781h-5v21.279h5v11.68h-5v83.842h5v17.051h-8v16.184h27.439v-16.184h-7.5566v-17.051h4.5566v-83.842h-4.5566v-11.68h4.5566v-21.279h-4.5566v-13.781h7.5566v-16.184z" fill="#fff"/>
    </clipPath>
  </defs>
  <path class='letter-border__path' transform="scale(.26458)" d="m0 16.184h8v13.781h-5v21.279h5v11.68h-5v83.842h5v17.051h-8m0 16.184h27.439m0-16.184h-7.5566v-17.051h4.5566v-83.842h-4.5566v-11.68h4.5566v-21.279h-4.5566v-13.781h7.5566m0-16.184h-27.439" clip-path="url(#i-border)" fill="none" stroke="#000" stroke-width="6"/>
</svg>
