<svg class='letter-border' width="86.16" height="180" version="1.1" viewBox="0 0 22.797 47.625" xmlns="http://www.w3.org/2000/svg">
  <defs>
    <clipPath id="k-border">
      <path d="m0 0v16.184h5.5v13.781h-2.5v116.8h2.5v17.051h-5.5v16.184h86.16v-16.184h-7.1602v-17.051h4.1602l-33.439-48.16 31.199-35.521h-3.2793v-46.9h8.5195v-16.184zm21.5 16.184h39.699v46.9h-3l-33.76 37.602v-70.721h-2.9395zm14.301 94.422 24.479 36.16h2.7207v17.051h-41.5v-17.051h2.9395v-24.961z" fill="#fff"/>
    </clipPath>
  </defs>
  <path class='letter-border__path' transform="scale(.26458)" d="m0 16.184h5.5v13.781h-2.5v116.8h2.5v17.051h-5.5m0 16.184h86.16m0-16.184h-7.1602v-17.051h4.1602l-33.439-48.16 31.199-35.521h-3.2793v-46.9h8.5195m0-16.184h-86.16m21.5 16.184h39.699v46.9h-3l-33.76 37.602v-70.721h-2.9395zm14.301 94.422 24.479 36.16h2.7207v17.051h-41.5v-17.051h2.9395v-24.961z" clip-path="url(#k-border)" fill="none" stroke="#000" stroke-width="6"/>
</svg>
