<svg class='letter-border' width="47.6" height="180" version="1.1" viewBox="0 0 12.594 47.625" xmlns="http://www.w3.org/2000/svg">
  <defs>
    <clipPath id="l-border">
      <path d="m0 0v16.184h5.8008v13.781h-2.8008v97.439c0 6.6133 1.8128 11.735 5.4395 15.361 1.9933 1.8794 4.4268 3.2393 7.2715 4.1152v16.936h-15.711v16.184h47.6v-16.184h-16.379v-16.338c1.0708-0.15556 2.1627-0.33378 3.2988-0.55469 3.84-0.74667 7.2001-1.8126 10.08-3.1992l-2.8789-16.32c-1.3867 0.64-2.9874 1.1729-4.8008 1.5996-1.8133 0.42666-3.5726 0.64062-5.2793 0.64062-2.24 0-4.0013-0.63992-5.2812-1.9199-1.28-1.3867-1.9199-3.9998-1.9199-7.8398v-89.92h-3.1289v-13.781h26.289v-16.184z" fill="#fff"/>
    </clipPath>
  </defs>
  <g transform="translate(.32808)">
    <path class='letter-border__path' transform="matrix(.26458 0 0 .26458 -.32808 0)" d="m0 16.184h5.8008v13.781h-2.8008v97.439c0 6.6133 1.8128 11.735 5.4395 15.361 1.9933 1.8794 4.4268 3.2393 7.2715 4.1152v16.936h-15.711m0 16.184h47.6m0-16.184h-16.379v-16.338c1.0708-0.15556 2.1627-0.33378 3.2988-0.55469 3.84-0.74667 7.2001-1.8126 10.08-3.1992l-2.8789-16.32c-1.3867 0.64-2.9874 1.1729-4.8008 1.5996-1.8133 0.42666-3.5726 0.64062-5.2793 0.64062-2.24 0-4.0013-0.63992-5.2812-1.9199-1.28-1.3867-1.9199-3.9998-1.9199-7.8398v-89.92h-3.1289v-13.781h26.289m0-16.184h-47.6" clip-path="url(#l-border)" fill="none" stroke="#000" stroke-width="6"/>
  </g>
</svg>
