<svg class='letter-mask' width="47.6" height="180" version="1.1" viewBox="0 0 12.594 47.625" xmlns="http://www.w3.org/2000/svg">
  <g transform="translate(.32808)">
    <path class='letter-mask__path' transform="matrix(.26458 0 0 .26458 -.32808 0)" d="m0 16.184v147.63h15.711v-16.936c-2.8447-0.87595-5.2782-2.2358-7.2715-4.1152-3.6267-3.6267-5.4395-8.748-5.4395-15.361v-97.439h2.8008v-13.781h-5.8008zm21.311 0v13.781h3.1289v89.92c0 3.84 0.63992 6.4532 1.9199 7.8398 1.28 1.28 3.0413 1.9199 5.2812 1.9199 1.7067 0 3.466-0.21396 5.2793-0.64062 1.8133-0.42667 3.4141-0.95961 4.8008-1.5996l2.8789 16.32c-2.88 1.3867-6.2401 2.4526-10.08 3.1992-1.1361 0.22091-2.2281 0.39913-3.2988 0.55469v16.338h16.379v-147.63h-26.289z" stroke-width="4.1699"/>
  </g>
</svg>
