<svg class='letter-border' width="136.24" height="180" version="1.1" viewBox="0 0 36.047 47.625" xmlns="http://www.w3.org/2000/svg">
  <defs>
    <clipPath id="m-border">
      <path d="m0 0v16.184h5v46.742h-2v83.84h3v17.051h-6v16.184h136.24v-16.184h-6.2402v-17.051h3.2402v-52.32c0-4.0533-0.37442-8.0533-1.1211-12-0.64-3.9467-1.8664-7.4672-3.6797-10.561-1.8133-3.2-4.373-5.7062-7.6797-7.5195-0.2505-0.1503-0.51834-0.28529-0.78125-0.42383v-47.758h16.262v-16.184zm20.199 16.184h81.779v45.793c-4.2201 0.67286-8.1515 2.0443-11.779 4.1484-5.2267 2.9867-9.5457 7.3591-12.959 13.119-1.0667-5.0133-3.5729-9.2253-7.5195-12.639-3.84-3.4133-9.2268-5.1211-16.16-5.1211s-13.067 1.4938-18.4 4.4805c-5.3333 2.88-9.6008 7.0405-12.801 12.48v-15.52h-2.1602zm24.24 64.182c4.0533 0 7.2014 1.5453 9.4414 4.6387 2.3467 3.0933 3.5195 8.0007 3.5195 14.721v47.041h2.5996v17.051h-39v-17.051h3.4395v-48.961c1.6-5.2267 4.2667-9.4406 8-12.641 3.84-3.2 7.84-4.7988 12-4.7988zm54.4 0c4.0533 0 7.1995 1.5988 9.4395 4.7988 2.3467 3.0933 3.5215 7.9472 3.5215 14.561v47.041h3.1992v17.051h-38.736v-17.051h2.5762v-48.801c1.6-5.2267 4.2667-9.4406 8-12.641 3.84-3.3067 7.84-4.959 12-4.959z" fill="#fff"/>
    </clipPath>
  </defs>
  <path class='letter-border__path' transform="scale(.26458)" d="m0 16.184h5v46.742h-2v83.84h3v17.051h-6m0 16.184h136.24m0-16.184h-6.2402v-17.051h3.2402v-52.32c0-4.0533-0.37442-8.0533-1.1211-12-0.64-3.9467-1.8664-7.4672-3.6797-10.561-1.8133-3.2-4.373-5.7062-7.6797-7.5195-0.2505-0.1503-0.51834-0.28529-0.78125-0.42383v-47.758h16.262m0-16.184h-136.24m20.199 16.184h81.779v45.793c-4.2201 0.67286-8.1515 2.0443-11.779 4.1484-5.2267 2.9867-9.5457 7.3591-12.959 13.119-1.0667-5.0133-3.5729-9.2253-7.5195-12.639-3.84-3.4133-9.2268-5.1211-16.16-5.1211s-13.067 1.4938-18.4 4.4805c-5.3333 2.88-9.6008 7.0405-12.801 12.48v-15.52h-2.1602zm24.24 64.182c4.0533 0 7.2014 1.5453 9.4414 4.6387 2.3467 3.0933 3.5195 8.0007 3.5195 14.721v47.041h2.5996v17.051h-39v-17.051h3.4395v-48.961c1.6-5.2267 4.2667-9.4406 8-12.641 3.84-3.2 7.84-4.7988 12-4.7988zm54.4 0c4.0533 0 7.1995 1.5988 9.4395 4.7988 2.3467 3.0933 3.5215 7.9472 3.5215 14.561v47.041h3.1992v17.051h-38.736v-17.051h2.5762v-48.801c1.6-5.2267 4.2667-9.4406 8-12.641 3.84-3.3067 7.84-4.959 12-4.959z" clip-path="url(#m-border)" fill="none" stroke="#000" stroke-width="6"/>
</svg>
