<svg class='letter-mask' width="136.24" height="180" version="1.1" viewBox="0 0 36.047 47.625" xmlns="http://www.w3.org/2000/svg">
  <path class='letter-mask__path' transform="scale(.26458)" d="m0 16.184v147.63h6v-17.051h-3v-83.84h2v-46.742h-5zm20.199 0v46.742h2.1602v15.52c3.2-5.44 7.4675-9.6005 12.801-12.48 5.3333-2.9867 11.467-4.4805 18.4-4.4805s12.32 1.7078 16.16 5.1211c3.9467 3.4133 6.4529 7.6253 7.5195 12.639 3.4133-5.76 7.7323-10.132 12.959-13.119 3.6278-2.1042 7.5592-3.4756 11.779-4.1484v-45.793h-81.779zm99.779 0v47.758c0.26291 0.13853 0.53075 0.27353 0.78125 0.42383 3.3067 1.8133 5.8664 4.3195 7.6797 7.5195 1.8133 3.0933 3.0397 6.6139 3.6797 10.561 0.74667 3.9467 1.1211 7.9467 1.1211 12v52.32h-3.2402v17.051h6.2402v-147.63h-16.262zm-75.539 64.182c-4.16 0-8.16 1.5988-12 4.7988-3.7333 3.2-6.4 7.414-8 12.641v48.961h-3.4395v17.051h39v-17.051h-2.5996v-47.041c0-6.72-1.1729-11.627-3.5195-14.721-2.24-3.0933-5.3881-4.6387-9.4414-4.6387zm54.4 0c-4.16 0-8.16 1.6523-12 4.959-3.7333 3.2-6.4 7.414-8 12.641v48.801h-2.5762v17.051h38.736v-17.051h-3.1992v-47.041c0-6.6133-1.1748-11.467-3.5215-14.561-2.24-3.2-5.3861-4.7988-9.4395-4.7988z" stroke-width="7.0547"/>
</svg>
