<svg class='letter-border' width="92.88" height="180" version="1.1" viewBox="0 0 24.574 47.625" xmlns="http://www.w3.org/2000/svg">
  <defs>
    <clipPath id="p-border">
      <path d="m0 0v16.184h4.9004v46.742h-1.9004v100.89h-3v16.184h3v0.8457h21.439v-0.8457h68.441v-16.184h-68.441v-31.771c2.7733 5.0133 6.6148 9.0133 11.521 12 5.0133 2.88 10.773 4.3203 17.279 4.3203 7.1467 0 13.439-1.9198 18.879-5.7598 5.5467-3.9467 9.8676-9.2265 12.961-15.84 3.2-6.6133 4.8008-13.973 4.8008-22.08 0-5.9733-1.0144-11.521-3.041-16.641-1.92-5.2267-4.6402-9.8131-8.1602-13.76-3.52-4.0533-7.6805-7.1995-12.48-9.4395-4.6933-2.24-9.8662-3.3613-15.52-3.3613-6.2933 0-11.892 1.4403-16.799 4.3203-4.9067 2.7733-8.9602 6.6129-12.16 11.52v-14.398h-1.6211v-46.742h72.781v-16.184zm44.76 79.725c3.3067 0 6.3478 0.63992 9.1211 1.9199 2.88 1.28 5.3862 3.0928 7.5195 5.4395 2.1333 2.24 3.7322 4.8551 4.7988 7.8418 1.1733 2.9867 1.7598 6.2398 1.7598 9.7598 0 3.3067-0.53294 6.5063-1.5996 9.5996-0.96 2.9867-2.4519 5.7068-4.4785 8.1602-1.92 2.3467-4.2142 4.213-6.8809 5.5996-2.6667 1.3867-5.6543 2.0801-8.9609 2.0801-2.9867 0-5.9188-0.69341-8.7988-2.0801-2.88-1.4933-5.4397-3.5201-7.6797-6.0801-2.1333-2.56-3.8411-5.3871-5.1211-8.4805v-19.68c0.64-2.0267 1.6544-3.8929 3.041-5.5996 1.4933-1.7067 3.1991-3.2005 5.1191-4.4805 1.92-1.28 3.8933-2.2389 5.9199-2.8789 2.1333-0.74667 4.2136-1.1211 6.2402-1.1211z" fill="#fff"/>
    </clipPath>
  </defs>
  <path class='letter-border__path' transform="scale(.26458)" d="m0 16.184h4.9004v46.742h-1.9004v100.89h-3m0 16.184h92.881m0-16.184h-68.441v-31.771c2.7733 5.0133 6.6148 9.0133 11.521 12 5.0133 2.88 10.773 4.3203 17.279 4.3203 7.1467 0 13.439-1.9198 18.879-5.7598 5.5467-3.9467 9.8676-9.2265 12.961-15.84 3.2-6.6133 4.8008-13.973 4.8008-22.08 0-5.9733-1.0144-11.521-3.041-16.641-1.92-5.2267-4.6402-9.8131-8.1602-13.76-3.52-4.0533-7.6805-7.1995-12.48-9.4395-4.6933-2.24-9.8662-3.3613-15.52-3.3613-6.2933 0-11.892 1.4403-16.799 4.3203-4.9067 2.7733-8.9602 6.6129-12.16 11.52v-14.398h-1.6211v-46.742h72.781m0-16.184h-92.881m44.76 79.725c3.3067 0 6.3478 0.63992 9.1211 1.9199 2.88 1.28 5.3862 3.0928 7.5195 5.4395 2.1333 2.24 3.7322 4.8551 4.7988 7.8418 1.1733 2.9867 1.7598 6.2398 1.7598 9.7598 0 3.3067-0.53294 6.5063-1.5996 9.5996-0.96 2.9867-2.4519 5.7068-4.4785 8.1602-1.92 2.3467-4.2142 4.213-6.8809 5.5996-2.6667 1.3867-5.6543 2.0801-8.9609 2.0801-2.9867 0-5.9188-0.69341-8.7988-2.0801-2.88-1.4933-5.4397-3.5201-7.6797-6.0801-2.1333-2.56-3.8411-5.3871-5.1211-8.4805v-19.68c0.64-2.0267 1.6544-3.8929 3.041-5.5996 1.4933-1.7067 3.1991-3.2005 5.1191-4.4805 1.92-1.28 3.8933-2.2389 5.9199-2.8789 2.1333-0.74667 4.2136-1.1211 6.2402-1.1211z" clip-path="url(#p-border)" fill="none" stroke="#000" stroke-miterlimit="4.1" stroke-width="6"/>
</svg>
