<svg class='letter-mask' width="92.88" height="180" version="1.1" viewBox="0 0 24.574 47.625" xmlns="http://www.w3.org/2000/svg">
  <path class='letter-mask__path' transform="scale(.26458)" d="m0 16.184v147.63h3v-100.89h1.9004v-46.742h-4.9004zm20.1 0v46.742h1.6211v14.398c3.2-4.9067 7.2535-8.7462 12.16-11.52 4.9067-2.88 10.505-4.3203 16.799-4.3203 5.6533 0 10.826 1.1213 15.52 3.3613 4.8 2.24 8.9605 5.3861 12.48 9.4395 3.52 3.9467 6.2402 8.5331 8.1602 13.76 2.0267 5.12 3.041 10.667 3.041 16.641 0 8.1067-1.6008 15.467-4.8008 22.08-3.0933 6.6133-7.4143 11.893-12.961 15.84-5.44 3.84-11.732 5.7598-18.879 5.7598-6.5067 0-12.266-1.4403-17.279-4.3203-4.9067-2.9867-8.7482-6.9867-11.521-12v31.771h68.441v-147.63h-72.781zm24.66 63.541c-2.0267 0-4.1069 0.37443-6.2402 1.1211-2.0267 0.64-3.9999 1.5989-5.9199 2.8789-1.92 1.28-3.6258 2.7738-5.1191 4.4805-1.3867 1.7067-2.401 3.5729-3.041 5.5996v19.68c1.28 3.0933 2.9878 5.9205 5.1211 8.4805 2.24 2.56 4.7997 4.5868 7.6797 6.0801 2.88 1.3867 5.8122 2.0801 8.7988 2.0801 3.3067 0 6.2943-0.69341 8.9609-2.0801 2.6667-1.3867 4.9609-3.2529 6.8809-5.5996 2.0267-2.4533 3.5185-5.1735 4.4785-8.1602 1.0667-3.0933 1.5996-6.293 1.5996-9.5996 0-3.52-0.58643-6.7731-1.7598-9.7598-1.0667-2.9867-2.6655-5.6018-4.7988-7.8418-2.1333-2.3467-4.6395-4.1595-7.5195-5.4395-2.7733-1.28-5.8144-1.9199-9.1211-1.9199z" stroke-width="5.8249"/>
</svg>
