<svg class='letter-mask' width="117.52" height="180" version="1.1" viewBox="0 0 31.094 47.625" xmlns="http://www.w3.org/2000/svg">
  <g transform="translate(1.524)">
    <path class='letter-mask__path' transform="matrix(.26458 0 0 .26458 -1.524 0)" d="m0 16.184v147.63h37.51v-20.24c-0.62704-0.26228-1.2542-0.52229-1.8691-0.81055-6.72-3.3067-12.535-7.6811-17.441-13.121-4.8-5.44-8.5326-11.574-11.199-18.4-2.6667-6.9333-4-14.026-4-21.279 0-7.5733 1.3868-14.773 4.1602-21.6 2.88-6.9333 6.773-13.067 11.68-18.4 5.0133-5.44 10.88-9.7074 17.6-12.801 3.3141-1.5535 6.7827-2.7222 10.398-3.5215v-17.459h-46.838zm70.838 0v17.482c3.645 0.82628 7.1148 2.0405 10.402 3.6582 6.8267 3.3067 12.639 7.7346 17.439 13.281 4.8 5.5467 8.5345 11.732 11.201 18.559 2.6667 6.8267 4 13.868 4 21.121 0 7.4667-1.3868 14.666-4.1602 21.6-2.6018 6.4045-6.204 12.191-10.777 17.375l15.576 17.506h-4.5195v17.051h7.5195v-147.63h-46.682zm-12.318 35.701c-5.44 0-10.24 1.1194-14.4 3.3594-4.0533 2.1333-7.465 5.0674-10.238 8.8008-2.7733 3.6267-4.9071 7.6802-6.4004 12.16-1.3867 4.48-2.0801 9.0664-2.0801 13.76 0 4.9067 0.7469 9.6536 2.2402 14.24 1.4933 4.5867 3.6251 8.6402 6.3984 12.16 2.88 3.52 6.3471 6.3471 10.4 8.4805 4.16 2.1333 8.8534 3.1992 14.08 3.1992 5.3333 0 10.08-1.0659 14.24-3.1992 0.32917-0.17724 0.64631-0.3668 0.9668-0.55273l-17.447-19.607h20.801l7.8281 8.7988c1.9133-3.0289 3.4153-6.2805 4.4922-9.7598 1.4933-4.5867 2.2402-9.1731 2.2402-13.76 0-4.9067-0.80039-9.6536-2.4004-14.24-1.4933-4.5867-3.6805-8.6402-6.5605-12.16-2.7733-3.52-6.2404-6.3471-10.4-8.4805-4.0533-2.1333-8.6398-3.1992-13.76-3.1992zm28.594 87.455c-2.1144 1.3235-4.3339 2.5237-6.6738 3.584-6.72 3.0933-14.08 4.6406-22.08 4.6406-1.6489 0-3.2594-0.07939-4.8496-0.20507v16.457h44.49v-17.051h-4.2793l-6.6074-7.4258z"/>
  </g>
</svg>
