<svg class='letter-border' width="55.92" height="180" version="1.1" viewBox="0 0 14.795 47.625" xmlns="http://www.w3.org/2000/svg">
  <defs>
    <clipPath id="r-border">
      <path d="m0 0v16.184h5v46.74h-2v83.842h3v17.051h-6v16.184h55.92v-16.184h-34.721v-17.051h3.2402v-50.721c2.24-4.6933 5.921-8.2674 11.041-10.721 5.12-2.56 10.933-3.8398 17.439-3.8398v-19.52c-0.42667-0.10667-0.95961-0.16016-1.5996-0.16016h-2.7207c-5.12 0.32-9.9739 2.1328-14.561 5.4395-4.5867 3.3067-8.3727 7.8416-11.359 13.602v-17.922h-2.4805v-46.74h35.721v-16.184z" fill="#fff"/>
    </clipPath>
  </defs>
  <path class='letter-border__path' transform="scale(.26458)" d="m0 16.184h5v46.74h-2v83.842h3v17.051h-6m0 16.184h55.92m0-16.184h-34.721v-17.051h3.2402v-50.721c2.24-4.6933 5.921-8.2674 11.041-10.721 5.12-2.56 10.933-3.8398 17.439-3.8398v-19.52c-0.42667-0.10667-0.95961-0.16016-1.5996-0.16016h-2.7207c-5.12 0.32-9.9739 2.1328-14.561 5.4395-4.5867 3.3067-8.3727 7.8416-11.359 13.602v-17.922h-2.4805v-46.74h35.721m0-16.184h-55.92" clip-path="url(#r-border)" fill="none" stroke="#000" stroke-width="6"/>
</svg>
