<svg class='letter-border' width="97.84" height="180" version="1.1" viewBox="0 0 25.887 47.625" xmlns="http://www.w3.org/2000/svg">
  <defs>
    <clipPath id="r-uppercase-border">
      <path d="m0 0v16.184h24.816v16.98h-21.816v113.6h3v17.051h-6v16.184h97.84v-16.184h-7.3398v-17.051h4.3398l-25.92-42.721c4.16-1.8133 7.7875-4.373 10.881-7.6797 3.0933-3.3067 5.4391-7.1462 7.0391-11.52 1.7067-4.48 2.5605-9.1199 2.5605-13.92 0-4.6933-0.90737-9.2817-2.7207-13.762-1.7067-4.48-4.2129-8.5335-7.5195-12.16-3.2-3.6267-7.0395-6.5053-11.52-8.6387-4.3733-2.1333-9.1737-3.2012-14.4-3.2012h-4.4238v-16.98h49.023v-16.184zm25.08 52.525h26.721c2.6667 0 5.1194 0.80039 7.3594 2.4004 2.3467 1.6 4.2664 3.7853 5.7598 6.5586 1.4933 2.6667 2.2402 5.8147 2.2402 9.4414 0 3.4133-0.63992 6.506-1.9199 9.2793-1.28 2.7733-2.9878 5.014-5.1211 6.7207-2.1333 1.6-4.586 2.3984-7.3594 2.3984h-27.68zm0 56.16h22.08l23.359 38.08h3.9805v17.051h-52.5v-17.051h3.0801z" fill="#fff"/>
    </clipPath>
    <clipPath id="clipPath919">
      <path d="m0 0v16.184h24.816v16.98h-21.816v113.6h3v17.051h-6v16.184h97.84v-16.184h-7.3398v-17.051h4.3398l-25.92-42.721c4.16-1.8133 7.7875-4.373 10.881-7.6797 3.0933-3.3067 5.4391-7.1462 7.0391-11.52 1.7067-4.48 2.5605-9.1199 2.5605-13.92 0-4.6933-0.90737-9.2817-2.7207-13.762-1.7067-4.48-4.2129-8.5335-7.5195-12.16-3.2-3.6267-7.0395-6.5053-11.52-8.6387-4.3733-2.1333-9.1737-3.2012-14.4-3.2012h-4.4238v-16.98h49.023v-16.184zm25.08 52.525h26.721c2.6667 0 5.1194 0.80039 7.3594 2.4004 2.3467 1.6 4.2664 3.7853 5.7598 6.5586 1.4933 2.6667 2.2402 5.8147 2.2402 9.4414 0 3.4133-0.63992 6.506-1.9199 9.2793-1.28 2.7733-2.9878 5.014-5.1211 6.7207-2.1333 1.6-4.586 2.3984-7.3594 2.3984h-27.68zm0 56.16h22.08l23.359 38.08h3.9805v17.051h-52.5v-17.051h3.0801z" clip-path="url(#r-uppercase-border)" fill="#fff"/>
    </clipPath>
  </defs>
  <g transform="translate(1.524)">
    <path class='letter-border__path' transform="matrix(.26458 0 0 .26458 -1.524 0)" d="m0 16.184h24.816v16.98h-21.816v113.6h3v17.051h-6m0 16.184h97.84m0-16.184h-7.3398v-17.051h4.3398l-25.92-42.721c4.16-1.8133 7.7875-4.373 10.881-7.6797 3.0933-3.3067 5.4391-7.1462 7.0391-11.52 1.7067-4.48 2.5605-9.1199 2.5605-13.92 0-4.6933-0.90737-9.2817-2.7207-13.762-1.7067-4.48-4.2129-8.5335-7.5195-12.16-3.2-3.6267-7.0395-6.5053-11.52-8.6387-4.3733-2.1333-9.1737-3.2012-14.4-3.2012h-4.4238v-16.98h49.023m0-16.184h-97.84m25.08 52.525h26.721c2.6667 0 5.1194 0.80039 7.3594 2.4004 2.3467 1.6 4.2664 3.7853 5.7598 6.5586 1.4933 2.6667 2.2402 5.8147 2.2402 9.4414 0 3.4133-0.63992 6.506-1.9199 9.2793-1.28 2.7733-2.9878 5.014-5.1211 6.7207-2.1333 1.6-4.586 2.3984-7.3594 2.3984h-27.68zm0 56.16h22.08l23.359 38.08h3.9805v17.051h-52.5v-17.051h3.0801z" clip-path="url(#clipPath919)" fill="none" stroke="#000" stroke-width="6"/>
  </g>
</svg>
