<svg class='letter-border' width="62.48" height="180" version="1.1" viewBox="0 0 16.531 47.625" xmlns="http://www.w3.org/2000/svg">
  <defs>
    <clipPath id="t-border">
      <path d="m0 0v16.184h17.039v19.541h-3v27.199h-11.039v16.48h11.039v48.16c0 4.9067 0.96086 8.9067 2.8809 12 2.0267 2.9867 4.6933 5.1739 8 6.5606 0.41654 0.17468 0.83893 0.33756 1.2656 0.49023v17.201h-26.186v16.184h62.48v-16.184h-21.295v-15.98c1.1456-0.15255 2.2849-0.34087 3.4141-0.5918 2.9867-0.53333 5.7603-1.2802 8.3203-2.2402s4.7472-1.8119 6.5605-2.5586l-4.3203-16.961c-1.28 0.53333-2.9878 1.1732-5.1211 1.9199-2.1333 0.74666-4.3186 1.1211-6.5586 1.1211-2.24 0-4.1063-0.63992-5.5996-1.9199-1.4933-1.28-2.2937-3.3602-2.4004-6.2402v-40.961h17.6v-16.48h-17.6v-27.199h-3.4414v-19.541h30.441v-16.184z" fill="#fff"/>
    </clipPath>
  </defs>
  <g transform="translate(1.524)">
    <path class='letter-border__path' transform="matrix(.26458 0 0 .26458 -1.524 0)" d="m0 16.184h17.039v19.541h-3v27.199h-11.039v16.48h11.039v48.16c0 4.9067 0.96086 8.9067 2.8809 12 2.0267 2.9867 4.6933 5.1739 8 6.5606 0.41654 0.17468 0.83893 0.33756 1.2656 0.49023v17.201h-26.186m0 16.184h62.48m0-16.184h-21.295v-15.98c1.1456-0.15255 2.2849-0.34087 3.4141-0.5918 2.9867-0.53333 5.7603-1.2802 8.3203-2.2402s4.7472-1.8119 6.5605-2.5586l-4.3203-16.961c-1.28 0.53333-2.9878 1.1732-5.1211 1.9199-2.1333 0.74666-4.3186 1.1211-6.5586 1.1211-2.24 0-4.1063-0.63992-5.5996-1.9199-1.4933-1.28-2.2937-3.3602-2.4004-6.2402v-40.961h17.6v-16.48h-17.6v-27.199h-3.4414v-19.541h30.441m0-16.184h-62.48" clip-path="url(#t-border)" fill="none" stroke="#000" stroke-width="6"/>
  </g>
</svg>
