<svg class='letter-border' width="139.76" height="180" version="1.1" viewBox="0 0 36.978 47.625" xmlns="http://www.w3.org/2000/svg">
  <defs>
    <clipPath id="w-border">
      <path d="m0 0v16.184h6.5v46.74h-3.5l34.881 83.842h2.1191v17.051h-40v16.184h139.76v-16.184h-39.76v-17.051h1.7207l35.039-83.842h-3.6719v-46.74h6.6719v-16.184zm20.088 16.184h25.912v46.9h-2.6797l14.561 35.84-9.7617 27.361-24.959-63.361h-3.0723zm38.797 0h21.615v46.9h-1.9805l-8.7988 25.602-8.6406-25.602h-2.1953zm34.5 0h26.115v46.74h-3.0606l-24.799 63.361-9.9199-27.361 14.559-35.84h-2.8945zm-23.664 94.582 14.08 36h2.1992v17.051h-32v-17.051h1.9609z" fill="#fff"/>
    </clipPath>
  </defs>
  <path class='letter-border__path' transform="scale(.26458)" d="m0 16.184h6.5v46.74h-3.5l34.881 83.842h2.1191v17.051h-40m0 16.184h139.76m0-16.184h-39.76v-17.051h1.7207l35.039-83.842h-3.6719v-46.74h6.6719m0-16.184h-139.76m20.088 16.184h25.912v46.9h-2.6797l14.561 35.84-9.7617 27.361-24.959-63.361h-3.0723zm38.797 0h21.615v46.9h-1.9805l-8.7988 25.602-8.6406-25.602h-2.1953zm34.5 0h26.115v46.74h-3.0606l-24.799 63.361-9.9199-27.361 14.559-35.84h-2.8945zm-23.664 94.582 14.08 36h2.1992v17.051h-32v-17.051h1.9609z" clip-path="url(#w-border)" fill="none" stroke="#000" stroke-width="6"/>
</svg>
