<svg class='letter-mask' width="174.64" height="180" version="1.1" viewBox="0 0 46.207 47.625" xmlns="http://www.w3.org/2000/svg">
  <path class='letter-mask__path' transform="scale(.26458)" d="m0 16.184v147.63h49.801v-17.051h-1.5215l-45.279-113.6h3.5v-16.98h-6.5zm23.586 0v16.98h3.0938l32.32 88.16 14.08-36.16-19.359-51.68h3.2734v-17.301h-33.408zm48.408 0v17.301h2.2051l12.961 37.6 13.119-37.6h2.7226v-17.301h-31.008zm46.008 0v17.301h2.5977l-19.52 51.68 14.4 36.16 32.16-88.16h3.3594v-16.98h-32.998zm50.084 0v16.98h3.5547l-45.441 113.6h-1.5859v17.051h50.027v-147.63h-6.5547zm-80.926 82.9-19.84 47.682h-1.5195v17.051h42.812v-17.051h-1.4531l-20-47.682z" stroke-width="7.9872"/>
</svg>
