<svg class='letter-border' width="174.64" height="180" version="1.1" viewBox="0 0 46.207 47.625" xmlns="http://www.w3.org/2000/svg">
  <defs>
    <clipPath id="w-uppercase-border">
      <path d="m0 0v16.184h6.5v16.98h-3.5l45.279 113.6h1.5215v17.051h-49.801v16.184h174.64v-16.184h-50.027v-17.051h1.5859l45.441-113.6h-3.5547v-16.98h6.5547v-16.184zm23.586 16.184h33.408v17.301h-3.2734l19.359 51.68-14.08 36.16-32.32-88.16h-3.0938zm48.408 0h31.008v17.301h-2.7226l-13.119 37.6-12.961-37.6h-2.2051zm46.008 0h32.998v16.98h-3.3594l-32.16 88.16-14.4-36.16 19.52-51.68h-2.5977zm-30.842 82.9 20 47.682h1.4531v17.051h-42.812v-17.051h1.5195z" fill="#fff"/>
    </clipPath>
  </defs>
  <path class='letter-border__path' transform="scale(.26458)" d="m0 16.184h6.5v16.98h-3.5l45.279 113.6h1.5215v17.051h-49.801m0 16.184h174.64m0-16.184h-50.027v-17.051h1.5859l45.441-113.6h-3.5547v-16.98h6.5547m0-16.184h-174.64m23.586 16.184h33.408v17.301h-3.2734l19.359 51.68-14.08 36.16-32.32-88.16h-3.0938zm48.408 0h31.008v17.301h-2.7226l-13.119 37.6-12.961-37.6h-2.2051zm46.008 0h32.998v16.98h-3.3594l-32.16 88.16-14.4-36.16 19.52-51.68h-2.5977zm-30.842 82.9 20 47.682h1.4531v17.051h-42.812v-17.051h1.5195z" clip-path="url(#w-uppercase-border)" fill="none" stroke="#000" stroke-width="6"/>
</svg>
