<svg class='letter-border' width="91.12" height="180" version="1.1" viewBox="0 0 24.109 47.625" xmlns="http://www.w3.org/2000/svg">
  <defs>
    <clipPath id="y-border">
      <path d="m0 0v16.184h6.5v46.74h-3.5l33.119 83.842c-1.3867 4.6933-2.72 8.3189-4 10.879-1.28 2.6667-2.6133 4.4795-4 5.4394-0.3382 0.28184-0.70343 0.52506-1.0938 0.73243h-10.016c-1.1178-0.23323-2.1948-0.45366-3.4492-0.73243v0.73243h-13.561v16.184h13.561v1.6445c2.0267 0.64 3.8929 1.066 5.5996 1.2793 1.7067 0.32 3.4125 0.48047 5.1191 0.48047 4.8 0 9.1209-0.90542 12.961-2.7188 0.50104-0.21667 0.99006-0.44654 1.4688-0.68555h52.41v-16.184h-38.352c0.0496-0.13803 0.10467-0.27305 0.15234-0.41211l35.199-100.48h-2.9199v-46.74h5.9199v-16.184zm22.5 16.184h47.5v46.74h-2.3594l-19.84 61.922-22.561-61.922h-2.7402z" fill="#fff"/>
    </clipPath>
  </defs>
  <path class='letter-border__path' transform="scale(.26458)" d="m0 16.184h6.5v46.74h-3.5l33.119 83.842c-1.3867 4.6933-2.72 8.3189-4 10.879-1.28 2.6667-2.6133 4.4795-4 5.4394-0.3382 0.28184-0.70343 0.52506-1.0938 0.73243h-10.016c-1.1178-0.23323-2.1948-0.45366-3.4492-0.73243v0.73243h-13.561m0 16.184h91.119m0-16.184h-38.352c0.0496-0.13803 0.10467-0.27305 0.15234-0.41211l35.199-100.48h-2.9199v-46.74h5.9199m0-16.184h-91.119m22.5 16.184h47.5v46.74h-2.3594l-19.84 61.922-22.561-61.922h-2.7402z" clip-path="url(#y-border)" fill="none" stroke="#000" stroke-width="6"/>
</svg>
