<svg  xmlns="http://www.w3.org/2000/svg" xmlns:svg="http://www.w3.org/2000/svg" version="1.1" viewBox="0 -622 918 917.99999"   width="918" height="918" >
  <g  transform="translate(-51,-233)">
    <path d="M 510,529 C 763,529 969,323 969,70 969,-183 763,-389 510,-389 257,-389 51,-183 51,70 51,323 257,529 510,529 Z M 459,321 H 560 V -47 H 459 c 0,0 0,368 0,368 z m 51,122 C 304,443 137,276 137,70 c 0,-206 167,-373 373,-373 206,0 373,167 373,373 0,206 -167,373 -373,373 z m 0,-536 c 27,0 54,-11 54,-49 0,-34 -20,-49 -54,-49 -27,0 -55,9 -55,49 0,38 25,49 55,49 z" />
  </g>
</svg>
