<?xml version="1.0" encoding="UTF-8" standalone="no"?>
<svg
   viewBox="0 0 34 24"
   version="1.1"
   id="svg10"
   sodipodi:docname="video.svg"
   width="34"
   height="24"
   inkscape:version="1.1.1 (3bf5ae0d25, 2021-09-20)"
   xmlns:inkscape="http://www.inkscape.org/namespaces/inkscape"
   xmlns:sodipodi="http://sodipodi.sourceforge.net/DTD/sodipodi-0.dtd"
   xmlns="http://www.w3.org/2000/svg"
   xmlns:svg="http://www.w3.org/2000/svg">
  <defs
     id="defs14" />
  <sodipodi:namedview
     id="namedview12"
     pagecolor="#ffffff"
     bordercolor="#666666"
     borderopacity="1.0"
     inkscape:pageshadow="2"
     inkscape:pageopacity="0.0"
     inkscape:pagecheckerboard="0"
     showgrid="false"
     inkscape:zoom="15.527778"
     inkscape:cx="28.948121"
     inkscape:cy="18.0322"
     inkscape:window-width="1362"
     inkscape:window-height="729"
     inkscape:window-x="2"
     inkscape:window-y="37"
     inkscape:window-maximized="1"
     inkscape:current-layer="svg10" />
  <path
     d="m 28,5 h 6 V 19 H 28 Z M 0,5 H 6 V 19 H 0 Z M 8,5 H 26 V 19 H 8 Z"
     fill="#bbddf5"
     id="path2"
     style="fill:#ffffff" />
  <path
     fill="#231f20"
     d="M 34,5 V 0 H 0 V 5 H 6 V 19 H 0 v 5 H 34 V 19 H 28 V 5 Z M 26,19 H 8 V 5 h 18 z"
     id="path4"
     style="fill:#000000" />
  <path
     fill="#f5f8fa"
     d="m 30,1 h 2 v 3 h -2 z m -4,0 h 2 v 3 h -2 z m -4,0 h 2 v 3 h -2 z m -4,0 h 2 v 3 h -2 z m -4,0 h 2 v 3 h -2 z m -4,0 h 2 V 4 H 10 Z M 6,1 H 8 V 4 H 6 Z M 2,1 H 4 V 4 H 2 Z m 28,19 h 2 v 3 h -2 z m -4,0 h 2 v 3 h -2 z m -4,0 h 2 v 3 h -2 z m -4,0 h 2 v 3 h -2 z m -4,0 h 2 v 3 h -2 z m -4,0 h 2 v 3 h -2 z m -4,0 h 2 v 3 H 6 Z m -4,0 h 2 v 3 H 2 Z"
     id="path6" />
  <path
     fill="#88c9f9"
     d="M 28,19 V 5 h 1 V 19 Z M 8,19 V 5 h 1 v 14 z"
     id="path8"
     style="fill:#666666" />
</svg>
