<svg class='letter-border' width="93.04" height="180" version="1.1" viewBox="0 0 24.617 47.625" xmlns="http://www.w3.org/2000/svg">
  <defs>
    <clipPath id="g-border">
      <path d="m0 0v16.184h23v50.324c-3.3832 1.9779-6.4239 4.5135-9.1191 7.6172-3.4133 3.9467-6.08 8.5331-8 13.76-1.92 5.2267-2.8809 10.881-2.8809 16.961 0 5.76 0.90737 11.198 2.7207 16.318 1.8133 5.12 4.373 9.6549 7.6797 13.602 3.4133 3.9467 7.4133 7.0393 12 9.2793 4.6933 2.1333 9.8127 3.1992 15.359 3.1992 5.6533 0 10.987-1.2798 16-3.8398 5.12-2.6667 9.0665-6.3992 11.84-11.199v10.561c0 5.44-1.1729 9.866-3.5195 13.279-2.24 3.52-5.2811 6.0797-9.1211 7.6797-0.07128 0.0326-0.1452 0.0598-0.2168 0.0918h-25.645c-0.71757-0.2761-1.4302-0.57005-2.1367-0.89258-4.8-2.24-8.8-5.3326-12-9.2793l-10.461 10.172h-5.5v16.184h25.979c5.1106 1.6215 10.938 2.4453 17.502 2.4453 6.3734 0 12.25-0.82622 17.652-2.4453h31.906v-16.184h-8.9297c3.9503-5.8226 5.9297-12.837 5.9297-21.051v-79.84h-1.8398v-46.742h4.8398v-16.184zm38.199 16.184h34.801v46.742h-1.6797v14.719c-3.2-4.9067-7.2535-8.7997-12.16-11.68-4.9067-2.9867-10.614-4.4805-17.121-4.4805-1.3062 0-2.583 0.06645-3.8398 0.18164zm8.4805 63.541c3.0933 0 6.0274 0.69341 8.8008 2.0801 2.88 1.28 5.4397 3.1463 7.6797 5.5996 2.3467 2.4533 4.1595 5.334 5.4395 8.6406v20c-0.74667 1.8133-1.8126 3.6261-3.1992 5.4395-1.3867 1.7067-2.9874 3.2005-4.8008 4.4805s-3.7866 2.2924-5.9199 3.0391c-2.1333 0.74666-4.3721 1.1211-6.7188 1.1211-3.2 0-6.2411-0.63992-9.1211-1.9199-2.7733-1.28-5.226-3.0412-7.3594-5.2812-2.0267-2.24-3.6274-4.8532-4.8008-7.8398-1.1733-2.9867-1.7598-6.1863-1.7598-9.5996 0-3.3067 0.47945-6.4528 1.4395-9.4395 1.0667-3.0933 2.5605-5.867 4.4805-8.3203 1.92-2.56 4.2142-4.5333 6.8809-5.9199 2.6667-1.3867 5.6523-2.0801 8.959-2.0801z" fill="#fff"/>
    </clipPath>
  </defs>
  <path class='letter-border__path' transform="scale(.26458)" d="m0 16.184h23v50.324c-3.3832 1.9779-6.4239 4.5135-9.1191 7.6172-3.4133 3.9467-6.08 8.5331-8 13.76-1.92 5.2267-2.8809 10.881-2.8809 16.961 0 5.76 0.90737 11.198 2.7207 16.318 1.8133 5.12 4.373 9.6549 7.6797 13.602 3.4133 3.9467 7.4133 7.0393 12 9.2793 4.6933 2.1333 9.8127 3.1992 15.359 3.1992 5.6533 0 10.987-1.2798 16-3.8398 5.12-2.6667 9.0665-6.3992 11.84-11.199v10.561c0 5.44-1.1729 9.866-3.5195 13.279-2.24 3.52-5.2811 6.0797-9.1211 7.6797-0.07128 0.0326-0.1452 0.0598-0.2168 0.0918h-25.645c-0.71757-0.2761-1.4302-0.57005-2.1367-0.89258-4.8-2.24-8.8-5.3326-12-9.2793l-10.461 10.172h-5.5m0 16.184h93.039m0-16.184h-8.9297c3.9503-5.8226 5.9297-12.837 5.9297-21.051v-79.84h-1.8398v-46.742h4.8398m0-16.184h-93.039m38.199 16.184h34.801v46.742h-1.6797v14.719c-3.2-4.9067-7.2535-8.7997-12.16-11.68-4.9067-2.9867-10.614-4.4805-17.121-4.4805-1.3062 0-2.583 0.06645-3.8398 0.18164zm8.4805 63.541c3.0933 0 6.0274 0.69341 8.8008 2.0801 2.88 1.28 5.4397 3.1463 7.6797 5.5996 2.3467 2.4533 4.1595 5.334 5.4395 8.6406v20c-0.74667 1.8133-1.8126 3.6261-3.1992 5.4395-1.3867 1.7067-2.9874 3.2005-4.8008 4.4805s-3.7866 2.2924-5.9199 3.0391c-2.1333 0.74666-4.3721 1.1211-6.7188 1.1211-3.2 0-6.2411-0.63992-9.1211-1.9199-2.7733-1.28-5.226-3.0412-7.3594-5.2812-2.0267-2.24-3.6274-4.8532-4.8008-7.8398-1.1733-2.9867-1.7598-6.1863-1.7598-9.5996 0-3.3067 0.47945-6.4528 1.4395-9.4395 1.0667-3.0933 2.5605-5.867 4.4805-8.3203 1.92-2.56 4.2142-4.5333 6.8809-5.9199 2.6667-1.3867 5.6523-2.0801 8.959-2.0801z" clip-path="url(#g-border)" fill="none" stroke="#000" stroke-width="6"/>
</svg>
