<svg class='letter-mask' width="109.84" height="180" version="1.1" viewBox="0 0 29.062 47.625" xmlns="http://www.w3.org/2000/svg">
  <g transform="translate(1.524)">
    <path class='letter-mask__path' transform="matrix(.26458 0 0 .26458 -1.524 0)" d="m0 16.184v147.63h48.256v-16.982c-4.2319-0.71719-8.3313-1.96-12.295-3.75-6.5067-2.9867-12.268-7.0917-17.281-12.318-4.9067-5.3333-8.7462-11.521-11.52-18.561-2.7733-7.04-4.1602-14.668-4.1602-22.881 0-7.7867 1.3868-15.093 4.1602-21.92 2.7733-6.9333 6.6664-13.014 11.68-18.24 5.0133-5.2267 10.88-9.3317 17.6-12.318 2.8321-1.2587 5.776-2.2366 8.8164-2.9648v-17.697h-45.256zm67.625 0v16.816c6.7823 0.96853 12.817 3.0469 18.096 6.2441 7.68 4.48 13.439 10.453 17.279 17.92l-16.48 12.16c-2.88-5.6533-6.9335-9.9723-12.16-12.959-5.12-2.9867-10.719-4.4805-16.799-4.4805-4.8 0-9.1744 1.0144-13.121 3.041-3.9467 2.0267-7.3602 4.7984-10.24 8.3184-2.88 3.52-5.1188 7.5735-6.7188 12.16-1.4933 4.5867-2.2402 9.4406-2.2402 14.561 0 5.44 0.80039 10.452 2.4004 15.039 1.7067 4.5867 4.0524 8.5867 7.0391 12 3.0933 3.4133 6.6674 6.1335 10.721 8.1602 4.0533 1.92 8.5328 2.8809 13.439 2.8809 5.76 0 11.254-1.4938 16.48-4.4805 4.719-2.6426 9.1449-6.3756 13.279-11.189v-7.8496h-22.879v-16.16h41.119v58.4h-3.8398v17.051h6.8398v-147.63h-42.215zm20.975 117.68c-7.2221 7.2217-15.337 11.586-24.344 13.098v16.859h28.744v-17.051h-4.4004v-12.906z" stroke-width="6.3343"/>
  </g>
</svg>
