<svg class='letter-border' width="109.84" height="180" version="1.1" viewBox="0 0 29.062 47.625" xmlns="http://www.w3.org/2000/svg">
  <defs>
    <clipPath id="g-uppercase-border">
      <path d="m0 0v16.184h45.256v17.697c-3.0404 0.72823-5.9844 1.7062-8.8164 2.9648-6.72 2.9867-12.586 7.0917-17.6 12.318-5.0133 5.2267-8.9064 11.307-11.68 18.24-2.7733 6.8267-4.1602 14.133-4.1602 21.92 0 8.2133 1.3868 15.841 4.1602 22.881 2.7733 7.04 6.6129 13.227 11.52 18.561 5.0133 5.2267 10.775 9.3317 17.281 12.318 3.9637 1.79 8.0631 3.0328 12.295 3.75v16.982h-48.256v16.184h109.84v-16.184h-6.8398v-17.051h3.8398v-58.4h-41.119v16.16h22.879v7.8496c-4.1344 4.8139-8.5603 8.5468-13.279 11.189-5.2267 2.9867-10.72 4.4805-16.48 4.4805-4.9067 0-9.3861-0.96086-13.439-2.8809-4.0533-2.0267-7.6274-4.7468-10.721-8.1602-2.9867-3.4133-5.3324-7.4133-7.0391-12-1.6-4.5867-2.4004-9.5991-2.4004-15.039 0-5.12 0.7469-9.9739 2.2402-14.561 1.6-4.5867 3.8388-8.6402 6.7188-12.16 2.88-3.52 6.2936-6.2917 10.24-8.3184 3.9467-2.0267 8.3211-3.041 13.121-3.041 6.08 0 11.679 1.4938 16.799 4.4805 5.2267 2.9867 9.2802 7.3057 12.16 12.959l16.48-12.16c-3.84-7.4667-9.5993-13.44-17.279-17.92-5.2792-3.1972-11.313-5.2756-18.096-6.2441v-16.816h42.215v-16.184zm88.6 133.86v12.906h4.4004v17.051h-28.744v-16.859c9.0066-1.5114 17.122-5.8759 24.344-13.098z" fill="#fff"/>
    </clipPath>
  </defs>
  <g transform="translate(1.524)">
    <path class='letter-border__path' transform="matrix(.26458 0 0 .26458 -1.524 0)" d="m0 16.184h45.256v17.697c-3.0404 0.72823-5.9844 1.7062-8.8164 2.9648-6.72 2.9867-12.586 7.0917-17.6 12.318-5.0133 5.2267-8.9064 11.307-11.68 18.24-2.7733 6.8267-4.1602 14.133-4.1602 21.92 0 8.2133 1.3868 15.841 4.1602 22.881 2.7733 7.04 6.6129 13.227 11.52 18.561 5.0133 5.2267 10.775 9.3317 17.281 12.318 3.9637 1.79 8.0631 3.0328 12.295 3.75v16.982h-48.256m0 16.184h109.84m0-16.184h-6.8398v-17.051h3.8398v-58.4h-41.119v16.16h22.879v7.8496c-4.1344 4.8139-8.5603 8.5468-13.279 11.189-5.2267 2.9867-10.72 4.4805-16.48 4.4805-4.9067 0-9.3861-0.96086-13.439-2.8809-4.0533-2.0267-7.6274-4.7468-10.721-8.1602-2.9867-3.4133-5.3324-7.4133-7.0391-12-1.6-4.5867-2.4004-9.5991-2.4004-15.039 0-5.12 0.7469-9.9739 2.2402-14.561 1.6-4.5867 3.8388-8.6402 6.7188-12.16 2.88-3.52 6.2936-6.2917 10.24-8.3184 3.9467-2.0267 8.3211-3.041 13.121-3.041 6.08 0 11.679 1.4938 16.799 4.4805 5.2267 2.9867 9.2802 7.3057 12.16 12.959l16.48-12.16c-3.84-7.4667-9.5993-13.44-17.279-17.92-5.2792-3.1972-11.313-5.2756-18.096-6.2441v-16.816h42.215m0-16.184h-109.84m88.6 133.86v12.906h4.4004v17.051h-28.744v-16.859c9.0066-1.5114 17.122-5.8759 24.344-13.098z" clip-path="url(#g-uppercase-border)" fill="none" stroke="#000" stroke-width="6"/>
  </g>
</svg>
