<svg class='letter-mask' width="83.92" height="180" version="1.1" viewBox="0 0 22.204 47.625" xmlns="http://www.w3.org/2000/svg">
  <path class='letter-mask__path' transform="scale(.26458)" d="m0 16.184v147.63h7.5v-17.051h-4.5v-83.84h2v-46.742h-5zm20.199 0v46.742h2.1602v15.52c2.1333-3.6267 4.8535-6.6678 8.1602-9.1211 3.3067-2.56 7.0947-4.4798 11.361-5.7598 4.3733-1.3867 8.9598-2.0801 13.76-2.0801 5.2267 0 9.4922 0.96086 12.799 2.8809 3.4133 1.8133 5.973 4.3195 7.6797 7.5195 1.8133 3.0933 3.0416 6.6139 3.6816 10.561 0.74667 3.9467 1.1191 7.9467 1.1191 12v52.32h-4.9199v17.051h7.9199v-147.63h-63.721zm26 64.182c-2.88 0-5.8122 0.7469-8.7988 2.2402-2.88 1.4933-5.4932 3.5736-7.8398 6.2402-2.3467 2.56-4.0544 5.5457-5.1211 8.959v48.961h-4.9395v17.051h44.5v-17.051h-4.5195v-47.041c0-6.72-1.1748-11.627-3.5215-14.721s-5.5998-4.6387-9.7598-4.6387z" stroke-width="5.5368"/>
</svg>
