<svg class='letter-mask' width="93.84" height="180" version="1.1" viewBox="0 0 24.828 47.625" xmlns="http://www.w3.org/2000/svg">
  <g transform="translate(1.524)">
    <path class='letter-mask__path' transform="matrix(.26458 0 0 .26458 -1.524 0)" d="m0 16.184v147.63h34.967v-16.775c-2.2185-0.52356-4.3411-1.2028-6.3672-2.0371-5.44-2.3467-10.08-5.5463-13.92-9.5996-3.7333-4.0533-6.614-8.6933-8.6406-13.92-2.0267-5.2267-3.0391-10.72-3.0391-16.48 0-5.8667 1.0124-11.412 3.0391-16.639 2.0267-5.2267 4.9073-9.8666 8.6406-13.92 3.84-4.0533 8.4799-7.2014 13.92-9.4414 2.0262-0.87403 4.1487-1.5843 6.3672-2.1328v-46.688h-34.967zm58.875 0v46.664c2.2283 0.55164 4.3501 1.2696 6.3652 2.1562 5.44 2.24 10.08 5.3881 13.92 9.4414 3.84 4.0533 6.7206 8.6933 8.6406 13.92 2.0267 5.2267 3.0391 10.772 3.0391 16.639 0 5.76-1.0124 11.254-3.0391 16.48-1.92 5.2267-4.8006 9.8666-8.6406 13.92-3.7333 4.0533-8.3198 7.2529-13.76 9.5996-2.074 0.85398-4.2499 1.5438-6.5254 2.0723v16.74h34.965v-147.63h-34.965zm-11.875 63.541c-4.16 0-7.8926 1.1194-11.199 3.3594-3.3067 2.1333-5.9198 5.1209-7.8398 8.9609-1.92 3.7333-2.8809 8.0523-2.8809 12.959 0 4.9067 0.96086 9.2811 2.8809 13.121 1.92 3.7333 4.5332 6.6655 7.8398 8.7988s7.0392 3.2012 11.199 3.2012c4.0533 0 7.7324-1.0678 11.039-3.2012 3.3067-2.24 5.9218-5.2257 7.8418-8.959 2.0267-3.84 3.0391-8.2125 3.0391-13.119 0-4.8-1.0124-9.1209-3.0391-12.961-1.92-3.84-4.5351-6.8257-7.8418-8.959-3.3067-2.1333-6.9857-3.2012-11.039-3.2012z" stroke-width="5.8549"/>
  </g>
</svg>
