<svg class='letter-border' width="90.32" height="180" version="1.1" viewBox="0 0 23.897 47.625" xmlns="http://www.w3.org/2000/svg">
  <defs>
    <clipPath id="p-uppercase-border">
      <path d="m0 0v16.184h5.5v16.98h-2.5v113.6h2.5v17.051h-5.5v16.184h90.32v-16.184h-67.82v-17.051h2.5801v-38.08h26.881c7.1467 0 13.332-1.8148 18.559-5.4414 5.2267-3.6267 9.3336-8.3201 12.32-14.08 2.9867-5.76 4.4805-11.84 4.4805-18.24 0-4.6933-0.90737-9.2798-2.7207-13.76-1.8133-4.48-4.373-8.5335-7.6797-12.16-3.2-3.6267-6.986-6.5053-11.359-8.6387-4.3733-2.1333-9.1737-3.2012-14.4-3.2012h-28.66v-16.98h67.82v-16.184zm25.08 52.525h24.641c2.6667 0 5.1194 0.69341 7.3594 2.0801 2.3467 1.3867 4.2129 3.4669 5.5996 6.2402 1.4933 2.7733 2.2402 6.1315 2.2402 10.078 0 3.6267-0.63992 6.8817-1.9199 9.7617-1.28 2.7733-2.9858 4.9051-5.1191 6.3984-2.1333 1.4933-4.5345 2.2402-7.2012 2.2402h-25.6z" fill="#fff"/>
    </clipPath>
  </defs>
  <path class='letter-border__path' transform="scale(.26458)" d="m0 16.184h5.5v16.98h-2.5v113.6h2.5v17.051h-5.5m0 16.184h90.32m0-16.184h-67.82v-17.051h2.5801v-38.08h26.881c7.1467 0 13.332-1.8148 18.559-5.4414 5.2267-3.6267 9.3336-8.3201 12.32-14.08 2.9867-5.76 4.4805-11.84 4.4805-18.24 0-4.6933-0.90737-9.2798-2.7207-13.76-1.8133-4.48-4.373-8.5335-7.6797-12.16-3.2-3.6267-6.986-6.5053-11.359-8.6387-4.3733-2.1333-9.1737-3.2012-14.4-3.2012h-28.66v-16.98h67.82m0-16.184h-90.32m25.08 52.525h24.641c2.6667 0 5.1194 0.69341 7.3594 2.0801 2.3467 1.3867 4.2129 3.4669 5.5996 6.2402 1.4933 2.7733 2.2402 6.1315 2.2402 10.078 0 3.6267-0.63992 6.8817-1.9199 9.7617-1.28 2.7733-2.9858 4.9051-5.1191 6.3984-2.1333 1.4933-4.5345 2.2402-7.2012 2.2402h-25.6z" clip-path="url(#p-uppercase-border)" fill="none" stroke="#000" stroke-width="6"/>
</svg>
