<svg class='letter-border' width="117.52" height="180" version="1.1" viewBox="0 0 31.094 47.625" xmlns="http://www.w3.org/2000/svg">
  <defs>
    <clipPath id="q-uppercase-border">
      <path d="m0 0v16.184h46.838v17.459c-3.6157 0.79932-7.0844 1.968-10.398 3.5215-6.72 3.0933-12.586 7.3608-17.6 12.801-4.9067 5.3333-8.7997 11.467-11.68 18.4-2.7733 6.8267-4.1602 14.026-4.1602 21.6 0 7.2533 1.3333 14.346 4 21.279 2.6667 6.8267 6.3992 12.96 11.199 18.4 4.9067 5.44 10.721 9.8144 17.441 13.121 0.61492 0.28825 1.2421 0.54827 1.8691 0.81055v20.24h-37.51v16.184h117.52v-16.184h-7.5195v-17.051h4.5195l-15.576-17.506c4.5733-5.184 8.1755-10.971 10.777-17.375 2.7733-6.9333 4.1602-14.133 4.1602-21.6 0-7.2533-1.3333-14.294-4-21.121-2.6667-6.8267-6.4012-13.012-11.201-18.559-4.8-5.5467-10.613-9.9746-17.439-13.281-3.2876-1.6177-6.7573-2.8319-10.402-3.6582v-17.482h46.682v-16.184zm58.52 51.885c5.12 0 9.7064 1.0659 13.76 3.1992 4.16 2.1333 7.6271 4.9605 10.4 8.4805 2.88 3.52 5.0672 7.5735 6.5605 12.16 1.6 4.5867 2.4004 9.3336 2.4004 14.24 0 4.5867-0.7469 9.1731-2.2402 13.76-1.0769 3.4792-2.5789 6.7308-4.4922 9.7598l-7.8281-8.7988h-20.801l17.447 19.607c-0.32049 0.18593-0.63763 0.37549-0.9668 0.55273-4.16 2.1333-8.9069 3.1992-14.24 3.1992-5.2267 0-9.9201-1.0659-14.08-3.1992-4.0533-2.1333-7.5204-4.9605-10.4-8.4805-2.7733-3.52-4.9051-7.5735-6.3984-12.16-1.4933-4.5867-2.2402-9.3336-2.2402-14.24 0-4.6933 0.69341-9.2798 2.0801-13.76 1.4933-4.48 3.6271-8.5335 6.4004-12.16 2.7733-3.7333 6.185-6.6674 10.238-8.8008 4.16-2.24 8.9604-3.3594 14.4-3.3594zm28.594 87.455 6.6074 7.4258h4.2793v17.051h-44.49v-16.457c1.5902 0.12568 3.2007 0.20507 4.8496 0.20507 8 0 15.36-1.5473 22.08-4.6406 2.3399-1.0603 4.5595-2.2605 6.6738-3.584z" fill="#fff"/>
    </clipPath>
  </defs>
  <g transform="translate(1.524)">
    <path class='letter-border__path' transform="matrix(.26458 0 0 .26458 -1.524 0)" d="m0 16.184h46.838v17.459c-3.6157 0.79932-7.0844 1.968-10.398 3.5215-6.72 3.0933-12.586 7.3608-17.6 12.801-4.9067 5.3333-8.7997 11.467-11.68 18.4-2.7733 6.8267-4.1602 14.026-4.1602 21.6 0 7.2533 1.3333 14.346 4 21.279 2.6667 6.8267 6.3992 12.96 11.199 18.4 4.9067 5.44 10.721 9.8144 17.441 13.121 0.61492 0.28825 1.2421 0.54827 1.8691 0.81055v20.24h-37.51m0 16.184h117.52m0-16.184h-7.5195v-17.051h4.5195l-15.576-17.506c4.5733-5.184 8.1755-10.971 10.777-17.375 2.7733-6.9333 4.1602-14.133 4.1602-21.6 0-7.2533-1.3333-14.294-4-21.121-2.6667-6.8267-6.4012-13.012-11.201-18.559-4.8-5.5467-10.613-9.9746-17.439-13.281-3.2876-1.6177-6.7573-2.8319-10.402-3.6582v-17.482h46.682m0-16.184h-117.52m58.52 51.885c5.12 0 9.7064 1.0659 13.76 3.1992 4.16 2.1333 7.6271 4.9605 10.4 8.4805 2.88 3.52 5.0672 7.5735 6.5605 12.16 1.6 4.5867 2.4004 9.3336 2.4004 14.24 0 4.5867-0.7469 9.1731-2.2402 13.76-1.0769 3.4792-2.5789 6.7308-4.4922 9.7598l-7.8281-8.7988h-20.801l17.447 19.607c-0.32049 0.18593-0.63763 0.37549-0.9668 0.55273-4.16 2.1333-8.9069 3.1992-14.24 3.1992-5.2267 0-9.9201-1.0659-14.08-3.1992-4.0533-2.1333-7.5204-4.9605-10.4-8.4805-2.7733-3.52-4.9051-7.5735-6.3984-12.16-1.4933-4.5867-2.2402-9.3336-2.2402-14.24 0-4.6933 0.69341-9.2798 2.0801-13.76 1.4933-4.48 3.6271-8.5335 6.4004-12.16 2.7733-3.7333 6.185-6.6674 10.238-8.8008 4.16-2.24 8.9604-3.3594 14.4-3.3594zm28.594 87.455 6.6074 7.4258h4.2793v17.051h-44.49v-16.457c1.5902 0.12568 3.2007 0.20507 4.8496 0.20507 8 0 15.36-1.5473 22.08-4.6406 2.3399-1.0603 4.5595-2.2605 6.6738-3.584z" clip-path="url(#q-uppercase-border)" fill="none" stroke="#000" stroke-width="6"/>
  </g>
</svg>
