<svg class='letter-border' width="76.88" height="180" version="1.1" viewBox="0 0 20.341 47.625" xmlns="http://www.w3.org/2000/svg">
  <defs>
    <clipPath id="s-border">
      <path d="m0 0v16.184h28.455v46.809c-1.6776 0.46864-3.2884 1.0257-4.8145 1.6934-5.0133 2.24-8.9598 5.3861-11.84 9.4395-2.7733 3.9467-4.1602 8.6936-4.1602 14.24 0 4.5867 1.0124 8.3727 3.0391 11.359 2.1333 2.88 5.2795 5.2792 9.4395 7.1992s9.3348 3.8952 15.521 5.9219c3.7333 1.0667 6.8795 2.0256 9.4395 2.8789 2.6667 0.85333 4.6934 1.8677 6.0801 3.041 1.3867 1.0667 2.0801 2.612 2.0801 4.6387 0 2.9867-1.2798 5.2274-3.8398 6.7207-2.4533 1.4933-5.7599 2.2402-9.9199 2.2402-4.48 0-9.1734-0.96086-14.08-2.8808-4.8-1.92-9.7074-4.9057-14.721-8.959l-7.6797 13.92c4.6933 4.5867 10.294 8.0537 16.801 10.4 2.8232 1.0182 5.7106 1.8005 8.6543 2.377v16.594h-28.455v16.184h76.881v-16.184h-26.977v-16.254c5.8659-1.0478 10.821-3.1241 14.855-6.2383 6.08-4.6933 9.1211-11.2 9.1211-19.52 0-5.12-1.1748-9.12-3.5215-12-2.3467-2.9867-5.8653-5.4929-10.559-7.5195-4.5867-2.0267-10.241-3.9999-16.961-5.9199-3.3067-1.0667-6.1338-2.0275-8.4805-2.8809-2.24-0.85333-3.9458-1.8122-5.1191-2.8789-1.0667-1.1733-1.5996-2.7741-1.5996-4.8008 0-2.24 0.58643-3.9458 1.7598-5.1191 1.28-1.28 2.8788-2.1874 4.7988-2.7207 2.0267-0.53333 4.1604-0.80078 6.4004-0.80078 3.9467 0 7.8397 0.80039 11.68 2.4004 3.84 1.4933 7.8935 3.8945 12.16 7.2012l8.6406-13.602c-4.3733-4.16-9.2272-7.1457-14.561-8.959-2.7837-1.0021-5.6571-1.7358-8.6152-2.2148v-45.807h26.977v-16.184z" fill="#fff"/>
    </clipPath>
  </defs>
  <g transform="translate(1.524)">
    <path class='letter-border__path' transform="matrix(.26458 0 0 .26458 -1.524 0)" d="m0 16.184h28.455v46.809c-1.6776 0.46864-3.2884 1.0257-4.8145 1.6934-5.0133 2.24-8.9598 5.3861-11.84 9.4395-2.7733 3.9467-4.1602 8.6936-4.1602 14.24 0 4.5867 1.0124 8.3727 3.0391 11.359 2.1333 2.88 5.2795 5.2792 9.4395 7.1992s9.3348 3.8952 15.521 5.9219c3.7333 1.0667 6.8795 2.0256 9.4395 2.8789 2.6667 0.85333 4.6934 1.8677 6.0801 3.041 1.3867 1.0667 2.0801 2.612 2.0801 4.6387 0 2.9867-1.2798 5.2274-3.8398 6.7207-2.4533 1.4933-5.7599 2.2402-9.9199 2.2402-4.48 0-9.1734-0.96086-14.08-2.8808-4.8-1.92-9.7074-4.9057-14.721-8.959l-7.6797 13.92c4.6933 4.5867 10.294 8.0537 16.801 10.4 2.8232 1.0182 5.7106 1.8005 8.6543 2.377v16.594h-28.455m0 16.184h76.881m0-16.184h-26.977v-16.254c5.8659-1.0478 10.821-3.1241 14.855-6.2383 6.08-4.6933 9.1211-11.2 9.1211-19.52 0-5.12-1.1748-9.12-3.5215-12-2.3467-2.9867-5.8653-5.4929-10.559-7.5195-4.5867-2.0267-10.241-3.9999-16.961-5.9199-3.3067-1.0667-6.1338-2.0275-8.4805-2.8809-2.24-0.85333-3.9458-1.8122-5.1191-2.8789-1.0667-1.1733-1.5996-2.7741-1.5996-4.8008 0-2.24 0.58643-3.9458 1.7598-5.1191 1.28-1.28 2.8788-2.1874 4.7988-2.7207 2.0267-0.53333 4.1604-0.80078 6.4004-0.80078 3.9467 0 7.8397 0.80039 11.68 2.4004 3.84 1.4933 7.8935 3.8945 12.16 7.2012l8.6406-13.602c-4.3733-4.16-9.2272-7.1457-14.561-8.959-2.7837-1.0021-5.6571-1.7358-8.6152-2.2148v-45.807h26.977m0-16.184h-76.881" clip-path="url(#s-border)" fill="none" stroke="#000" stroke-width="6"/>
  </g>
</svg>
