<svg class='letter-mask' width="76.88" height="180" version="1.1" viewBox="0 0 20.341 47.625" xmlns="http://www.w3.org/2000/svg">
  <g transform="translate(1.524)">
    <path class='letter-mask__path' transform="matrix(.26458 0 0 .26458 -1.524 0)" d="m0 16.184v147.63h28.455v-16.594c-2.9437-0.57642-5.8311-1.3587-8.6543-2.377-6.5067-2.3467-12.107-5.8137-16.801-10.4l7.6797-13.92c5.0133 4.0533 9.9207 7.039 14.721 8.959 4.9067 1.92 9.6001 2.8808 14.08 2.8808 4.16 0 7.4666-0.7469 9.9199-2.2402 2.56-1.4933 3.8398-3.734 3.8398-6.7207 0-2.0267-0.69341-3.572-2.0801-4.6387-1.3867-1.1733-3.4134-2.1877-6.0801-3.041-2.56-0.85333-5.7061-1.8122-9.4395-2.8789-6.1867-2.0267-11.361-4.0019-15.521-5.9219s-7.3061-4.3192-9.4395-7.1992c-2.0267-2.9867-3.0391-6.7727-3.0391-11.359 0-5.5467 1.3868-10.294 4.1602-14.24 2.88-4.0533 6.8265-7.1995 11.84-9.4395 1.526-0.66763 3.1368-1.2247 4.8145-1.6934v-46.809h-28.455zm49.904 0v45.807c2.9581 0.47908 5.8315 1.2127 8.6152 2.2148 5.3333 1.8133 10.187 4.799 14.561 8.959l-8.6406 13.602c-4.2667-3.3067-8.3202-5.7078-12.16-7.2012-3.84-1.6-7.733-2.4004-11.68-2.4004-2.24 0-4.3737 0.26745-6.4004 0.80078-1.92 0.53333-3.5188 1.4407-4.7988 2.7207-1.1733 1.1733-1.7598 2.8791-1.7598 5.1191 0 2.0267 0.53294 3.6274 1.5996 4.8008 1.1733 1.0667 2.8791 2.0256 5.1191 2.8789 2.3467 0.85333 5.1738 1.8142 8.4805 2.8809 6.72 1.92 12.374 3.8933 16.961 5.9199 4.6933 2.0267 8.2119 4.5329 10.559 7.5195 2.3467 2.88 3.5215 6.88 3.5215 12 0 8.32-3.0411 14.826-9.1211 19.52-4.0343 3.1142-8.9896 5.1905-14.855 6.2383v16.254h26.977v-147.63h-26.977z" stroke-width="5.2995"/>
  </g>
</svg>
