<svg class='letter-mask' width="95.76" height="180" version="1.1" viewBox="0 0 25.336 47.625" xmlns="http://www.w3.org/2000/svg">
  <g transform="translate(1.524)">
    <path class='letter-mask__path' transform="matrix(.26458 0 0 .26458 -1.524 0)" d="m0 16.184v147.63h37.236v-16.885c-1.1719-0.1928-2.3438-0.40327-3.5156-0.64648-5.6533-1.1733-11.094-2.8276-16.32-4.9609-5.2267-2.24-10.027-4.9067-14.4-8l9.7598-19.039c0.96 0.96 2.6678 2.2398 5.1211 3.8398 2.4533 1.4933 5.439 3.0406 8.959 4.6406 3.52 1.4934 7.3595 2.7732 11.52 3.8398 4.16 1.0667 8.374 1.5996 12.641 1.5996 5.9733 0 10.506-1.0144 13.6-3.041 3.0933-2.0267 4.6406-4.9053 4.6406-8.6387 0-3.4133-1.2264-6.08-3.6797-8-2.4533-1.92-5.8669-3.5743-10.24-4.9609-4.3733-1.4933-9.5462-3.0922-15.52-4.7988-7.1467-2.0267-13.12-4.2674-17.92-6.7207-4.8-2.56-8.374-5.7596-10.721-9.5996-2.3467-3.84-3.5195-8.6404-3.5195-14.4 0-7.7867 1.8128-14.293 5.4395-19.52 3.7333-5.3333 8.7457-9.3333 15.039-12 2.8902-1.2736 5.9346-2.241 9.1172-2.9297v-17.412h-37.236zm58.684 0v16.867c1.8574 0.27542 3.6688 0.63254 5.4355 1.0742 4.8 1.1733 9.2814 2.7206 13.441 4.6406s7.8926 3.9983 11.199 6.2383l-9.7598 17.92c-0.74667-0.74667-2.1335-1.7591-4.1602-3.0391-1.92-1.28-4.3192-2.5064-7.1992-3.6797-2.7733-1.1733-5.8144-2.1877-9.1211-3.041-3.3067-0.96-6.6667-1.4395-10.08-1.4395-5.9733 0-10.506 1.1194-13.6 3.3594-2.9867 2.24-4.4805 5.3881-4.4805 9.4414 0 3.0933 0.96086 5.546 2.8809 7.3594 1.92 1.8133 4.8006 3.3606 8.6406 4.6406 3.84 1.28 8.6384 2.6668 14.398 4.1602 7.4667 1.8133 13.921 4.0521 19.361 6.7188 5.5467 2.56 9.7587 5.9736 12.639 10.24 2.9867 4.16 4.4805 9.7073 4.4805 16.641 0 6.08-1.1194 11.306-3.3594 15.68-2.24 4.2667-5.3346 7.7337-9.2812 10.4-3.9467 2.6667-8.4261 4.6399-13.439 5.9199-2.5801 0.60385-5.2465 1.0487-7.9961 1.3418v16.189h37.076v-147.63h-37.076z" stroke-width="5.9145"/>
  </g>
</svg>
