<svg class='letter-border' width="90.96" height="180" version="1.1" viewBox="0 0 24.066 47.625" xmlns="http://www.w3.org/2000/svg">
  <defs>
    <clipPath id="v-border">
      <path d="m0 0v16.184h8.4551v46.74h-5.4551l30.881 83.842h2.6191v17.051h-36.5v16.184h90.961v-16.184h-36.461v-17.051h2.7402l30.719-83.842h-4.2598v-46.74h7.2617v-16.184zm20.455 16.184h51.244v46.74h-4.0586l-21.281 64.32-21.119-64.32h-4.7852z" fill="#fff"/>
    </clipPath>
  </defs>
  <g transform="translate(1.524)">
    <path class='letter-border__path' transform="matrix(.26458 0 0 .26458 -1.524 0)" d="m0 16.184h8.4551v46.74h-5.4551l30.881 83.842h2.6191v17.051h-36.5m0 16.184h90.961m0-16.184h-36.461v-17.051h2.7402l30.719-83.842h-4.2598v-46.74h7.2617m0-16.184h-90.961m20.455 16.184h51.244v46.74h-4.0586l-21.281 64.32-21.119-64.32h-4.7852z" clip-path="url(#v-border)" fill="none" stroke="#000" stroke-width="6"/>
  </g>
</svg>
