<svg class='letter-mask' width="91.12" height="180" version="1.1" viewBox="0 0 24.109 47.625" xmlns="http://www.w3.org/2000/svg">
  <path class='letter-mask__path' transform="scale(.26458)" d="m0 16.184v147.63h13.561v-0.73243c1.2544 0.27877 2.3314 0.4992 3.4492 0.73243h10.016c0.39032-0.20737 0.75555-0.45059 1.0938-0.73243 1.3867-0.95999 2.72-2.7728 4-5.4394 1.28-2.56 2.6133-6.1856 4-10.879l-33.119-83.842h3.5v-46.74h-6.5zm22.5 0v46.74h2.7402l22.561 61.922 19.84-61.922h2.3594v-46.74h-47.5zm62.699 0v46.74h2.9199l-35.199 100.48c-0.047678 0.13906-0.10274 0.27408-0.15234 0.41211h38.352v-147.63h-5.9199z" stroke-width="5.7694"/>
</svg>
