<?xml version="1.0" encoding="UTF-8" standalone="no"?>
<svg
   class="valve-border"
   width="1200"
   height="179.838"
   preserveAspectRatio="xMidYMid slice"
   version="1.1"
   viewBox="0 0 317.49999 47.582138"
   id="svg17"
   sodipodi:docname="border-bak.svg"
   inkscape:version="1.1.1 (3bf5ae0d25, 2021-09-20)"
   xmlns:inkscape="http://www.inkscape.org/namespaces/inkscape"
   xmlns:sodipodi="http://sodipodi.sourceforge.net/DTD/sodipodi-0.dtd"
   xmlns="http://www.w3.org/2000/svg"
   xmlns:svg="http://www.w3.org/2000/svg">
  <sodipodi:namedview
     id="namedview19"
     pagecolor="#ffffff"
     bordercolor="#666666"
     borderopacity="1.0"
     inkscape:pageshadow="2"
     inkscape:pageopacity="0.0"
     inkscape:pagecheckerboard="0"
     showgrid="false"
     inkscape:zoom="1.2432572"
     inkscape:cx="352.70256"
     inkscape:cy="123.466"
     inkscape:window-width="1276"
     inkscape:window-height="776"
     inkscape:window-x="0"
     inkscape:window-y="20"
     inkscape:window-maximized="1"
     inkscape:current-layer="svg17"
     height="179.838px" />
  <defs
     id="defs5">
    <clipPath
       id="clipPath-valve1">
      <path
         class="valve-border__clip-path"
         d="M 591.9082,0 V 163.65234 H 0 v 16.18555 H 608.0918 V 16.18359 H 1200 V -4e-6 H 608.0918 Z"
         fill="none"
         id="path2" />
    </clipPath>
    <clipPath
       id="clipPath845">
      <path
         class="letter-border__clip-path"
         d="M 0,0 V 16.183594 H 3 V 62.923828 H 1 V 146.76562 H 3 V 163.6543 H 0 v 16.18359 H 51.919922 V 163.6543 H 18.199219 v -16.88868 h 4.240234 V 96.044922 c 2.239999,-4.693329 5.92102,-8.267372 11.041016,-10.720703 5.119996,-2.559998 10.932792,-3.839844 17.439453,-3.839844 V 61.964844 c -0.426666,-0.106659 -0.95961,-0.160157 -1.59961,-0.160156 h -2.720703 c -5.119995,0.319999 -9.973883,2.132789 -14.560547,5.439453 -4.586662,3.306663 -8.37271,7.841565 -11.359374,13.601562 V 62.923828 H 18.199219 V 16.183594 H 51.919922 V 0 Z"
         fill="#ffffff"
         id="path64" />
    </clipPath>
  </defs>
  <g
     transform="matrix(1,0,0,0.99909995,160.89103,1.7256681e-5)"
     id="g15">
    <path
       class="valve-border__path"
       transform="matrix(0.26458333,0,0,0.26482183,-160.89103,-1.6212463e-5)"
       d="M 1200,0 H 591.9082 V 163.65391 H 0 m 0,16.18398 608.0918,1e-5 V 16.18359 H 1200"
       clip-path="url(#clipPath-valve1)"
       fill="none"
       stroke="#000000"
       stroke-width="6"
       id="path7"
       sodipodi:nodetypes="cccccccc" />
    <rect
       class="valve-border__rect"
       x="-160.89104"
       y="1.4614339e-08"
       width="156.60899"
       height="4.2858768"
       fill="#010101"
       id="rect9" />
    <rect
       class="valve-border__rect"
       x="-7.6610304e-05"
       y="43.342968"
       width="156.60899"
       height="4.2820168"
       fill="#010101"
       id="rect11" />
  </g>
</svg>
